<?xml version="1.0" encoding="UTF-8" standalone="no"?>
<svg
   class="img-fluid"
   id="back"
   style="transform: matrix(0.856831, 0, 0, 0.856831, 0, 0); transform-origin: 50% 50% 0px; cursor: move; transition: none 0s ease 0s;"
   viewBox="0 0 930 910"
   version="1.1"
   sodipodi:docname="back_wheel.svg"
   inkscape:version="1.3.2 (091e20e, 2023-11-25, custom)"
   xmlns:inkscape="http://www.inkscape.org/namespaces/inkscape"
   xmlns:sodipodi="http://sodipodi.sourceforge.net/DTD/sodipodi-0.dtd"
   xmlns="http://www.w3.org/2000/svg"
   xmlns:svg="http://www.w3.org/2000/svg">
  <defs
     id="defs8" />
  <sodipodi:namedview
     id="namedview8"
     pagecolor="#505050"
     bordercolor="#eeeeee"
     borderopacity="1"
     inkscape:showpageshadow="0"
     inkscape:pageopacity="0"
     inkscape:pagecheckerboard="0"
     inkscape:deskcolor="#505050"
     inkscape:zoom="8.5384615"
     inkscape:cx="46.554054"
     inkscape:cy="45.382883"
     inkscape:window-width="1920"
     inkscape:window-height="991"
     inkscape:window-x="-9"
     inkscape:window-y="-9"
     inkscape:window-maximized="1"
     inkscape:current-layer="back" />
  <g
     id="l3PCpcymra5ELx8ftKbiyvl"
     fill="rgb(49,37,143)"
     style="transform: none;">
    <g
       style="transform: none;"
       id="g1">
      <path
         id="pQphQlhIR"
         d="M 195 881 c -69 -40 -130 -105 -165 -175 -30 -59 -30 -60 -30 -236 0 -179 9 -240 36 -240 8 0 14 -10 14 -25 0 -14 5 -25 10 -25 6 0 10 -7 10 -15 0 -8 6 -15 14 -15 8 0 16 -10 18 -22 2 -19 10 -24 41 -26 37 -3 37 -3 37 33 0 28 -5 38 -20 42 -11 3 -20 14 -20 24 0 11 -4 19 -10 19 -5 0 -10 7 -10 15 0 8 -7 15 -15 15 -8 0 -15 7 -15 16 0 9 -10 47 -21 86 -15 50 -20 85 -16 122 11 111 78 227 167 294 25 18 54 41 65 51 26 23 151 46 212 38 102 -13 145 -33 225 -107 42 -39 80 -79 83 -90 4 -11 14 -20 24 -20 15 0 20 -11 24 -52 3 -29 10 -73 15 -97 20 -93 -40 -242 -134 -331 -42 -39 -54 -58 -54 -81 0 -26 3 -29 32 -29 61 0 150 85 198 191 17 38 20 66 20 214 0 190 -4 215 -31 215 -11 0 -19 6 -19 14 0 7 -9 34 -20 60 -23 50 -78 101 -153 141 -47 24 -53 25 -255 25 l -207 0 -50 -29 z " />
      <path
         id="p13sTFfNKP"
         d="M 410 780 c 0 -18 -5 -20 -53 -14 -56 7 -97 -6 -97 -29 0 -7 -15 -17 -32 -22 -26 -8 -34 -16 -36 -37 -2 -17 -9 -28 -18 -28 -12 0 -15 -10 -12 -42 2 -37 0 -43 -19 -46 -26 -4 -33 -27 -33 -117 0 -89 7 -115 31 -115 16 0 19 -8 19 -45 0 -41 2 -45 25 -45 21 0 25 -5 25 -30 0 -17 5 -30 13 -30 7 0 18 -9 25 -20 8 -14 23 -20 47 -20 24 0 35 -5 35 -14 0 -38 218 -46 255 -10 7 8 21 14 30 14 27 0 68 26 112 72 44 45 63 83 63 123 0 13 6 25 13 28 16 5 16 189 -1 195 -7 2 -12 15 -12 28 0 38 -28 84 -50 84 -15 0 -20 7 -20 25 0 20 -5 25 -25 25 -18 0 -25 5 -25 20 0 25 -29 40 -74 40 -29 0 -36 -4 -36 -20 0 -11 -4 -20 -9 -20 -4 0 -18 -39 -31 -87 -28 -112 -31 -121 -37 -106 -2 6 3 37 11 70 8 32 18 88 21 126 l 7 67 -56 0 c -49 0 -56 -2 -56 -20 z  m 330 -315 c 0 -11 -11 -15 -39 -15 -21 0 -66 -3 -100 -6 -52 -6 -61 -4 -61 9 0 16 6 17 163 25 27 1 37 -2 37 -13 z  m -267 -27 c 19 -10 27 -20 27 -40 0 -15 16 -66 35 -114 38 -93 40 -104 25 -104 -5 0 -10 9 -10 20 0 11 -17 61 -37 110 -36 88 -37 90 -70 90 -29 0 -33 3 -33 25 0 29 20 32 63 13 z " />
    </g>
  </g>
  <g
     id="l2lpKhCiUYDbLog83Blf1oV"
     fill="rgb(66,59,150)"
     style="transform: none;">
    <g
       style="transform: none;"
       id="g2">
      <path
         id="p78UUJlS9"
         d="M 240 890 c -11 -11 -33 -20 -50 -20 -23 0 -30 -4 -30 -20 0 -14 -7 -20 -21 -20 -29 0 -45 -19 -53 -63 -4 -20 -11 -37 -16 -37 -6 0 -10 -7 -10 -15 0 -8 -4 -15 -9 -15 -5 0 -13 -9 -16 -20 -3 -11 -13 -20 -21 -20 -11 0 -14 -18 -13 -92 1 -82 2 -87 9 -46 32 186 135 311 305 370 l 50 17 -52 1 c -40 0 -58 -5 -73 -20 z " />
      <path
         id="pQswz3Nt6"
         d="M 600 889 c 30 -10 59 -24 65 -30 7 -7 2 -7 -17 0 -14 5 -60 17 -102 26 -63 13 -88 13 -144 4 -37 -7 -79 -13 -95 -14 -15 -2 -37 -12 -50 -24 -12 -11 -42 -35 -67 -53 -103 -77 -160 -189 -169 -333 -4 -74 -6 -83 -12 -50 -4 29 -7 14 -8 -52 0 -51 2 -93 7 -93 4 0 15 -23 25 -51 10 -27 25 -53 33 -56 8 -3 14 -10 14 -16 0 -19 83 -87 143 -117 42 -21 75 -30 109 -30 46 0 48 1 48 28 0 25 -6 31 -37 40 -21 7 -54 22 -75 34 -42 27 -138 115 -138 128 0 4 -4 10 -8 12 -13 5 -51 101 -58 147 -4 22 -10 41 -15 41 -5 0 -9 11 -9 25 0 14 4 25 9 25 5 0 12 17 16 38 8 43 45 135 57 140 4 2 8 10 8 17 0 7 7 15 15 19 8 3 15 15 15 26 0 13 7 20 20 20 11 0 25 9 32 20 7 11 18 20 25 20 6 0 13 4 15 8 7 16 127 62 179 68 80 9 234 -40 262 -83 4 -7 24 -13 42 -13 33 0 35 -2 35 -33 0 -20 9 -42 25 -59 30 -33 75 -162 75 -217 0 -46 -37 -169 -57 -189 -7 -7 -13 -19 -13 -25 0 -7 -9 -18 -20 -25 -11 -7 -20 -23 -20 -36 0 -19 -7 -26 -30 -31 -16 -4 -33 -12 -37 -18 -20 -31 -172 -87 -235 -87 -31 0 -38 -4 -38 -20 0 -19 7 -20 115 -20 105 0 121 2 168 26 29 15 56 33 60 40 4 8 15 14 22 14 9 0 15 10 15 25 0 20 5 25 26 25 17 0 28 6 31 20 3 11 9 20 14 20 5 0 9 14 9 31 0 21 9 40 25 55 23 21 25 29 24 111 -1 79 -2 83 -9 41 -20 -118 -85 -240 -158 -294 -32 -24 -30 -21 16 29 97 104 146 253 122 372 -7 33 -14 76 -17 95 l -4 35 16 -35 c 9 -19 20 -57 24 -85 8 -47 9 -45 10 38 1 52 -3 87 -9 87 -5 0 -10 9 -10 20 0 11 -12 38 -26 60 -21 32 -33 40 -57 40 -22 0 -27 -3 -20 -12 36 -47 14 -42 -39 7 -35 32 -70 65 -78 72 -25 23 19 4 58 -25 l 32 -24 0 31 c 0 26 -4 31 -25 31 -15 0 -25 6 -25 15 0 8 -12 17 -27 20 -16 4 -36 10 -45 16 -10 5 -39 9 -65 8 l -48 0 55 -20 z " />
      <path
         id="p7vq6XSiu"
         d="M 311 778 c -102 -39 -201 -171 -201 -268 0 -58 25 -83 33 -32 l 4 27 2 -27 c 2 -44 28 -34 34 13 9 67 17 68 109 11 45 -28 84 -55 86 -60 3 -10 -140 -132 -156 -132 -12 0 -31 43 -38 90 -8 46 -31 54 -37 13 l -4 -28 -2 28 c -1 34 -19 35 -27 2 -15 -59 29 -168 92 -229 21 -20 41 -36 46 -36 5 0 16 -7 24 -15 53 -53 246 -58 351 -11 58 27 133 90 133 112 0 7 4 14 10 16 5 2 19 30 31 63 17 49 20 77 17 151 -3 78 -8 101 -36 157 -31 63 -91 127 -119 127 -7 0 -13 4 -13 8 0 5 -23 16 -51 25 -75 25 -218 22 -288 -5 z  m 169 -60 c 0 -28 -43 -198 -50 -198 -4 0 -18 8 -31 18 -13 10 -53 36 -88 57 l -65 39 38 32 c 21 18 57 40 80 48 52 18 116 20 116 4 z  m 44 -47 c -4 -17 -9 -30 -11 -27 -3 2 -2 19 2 36 4 17 9 30 11 27 2 -2 1 -18 -2 -36 z  m 119 -2 c 37 -30 79 -93 92 -136 6 -22 3 -23 -42 -23 -62 0 -93 -9 -93 -26 0 -10 14 -14 50 -14 39 0 50 4 50 16 0 21 34 14 38 -9 2 -12 -3 -17 -17 -17 -14 0 -21 -6 -21 -20 0 -14 7 -20 24 -20 22 0 23 -3 17 -32 -18 -76 -108 -195 -131 -172 -14 14 -78 178 -73 187 2 4 25 7 51 7 62 0 92 9 92 27 0 13 -12 15 -65 11 -36 -2 -65 0 -65 4 0 4 7 8 15 8 8 0 15 9 15 20 0 15 -7 20 -29 20 l -29 0 13 53 c 41 168 42 170 108 116 z  m 102 -69 c 9 -16 13 -30 11 -30 -3 0 -12 14 -21 30 -9 17 -13 30 -11 30 3 0 12 -13 21 -30 z  m -247 -112 c 20 -20 13 -32 -8 -13 -11 10 -28 15 -40 12 -11 -3 -18 -1 -14 4 8 13 48 11 62 -3 z  m 282 -88 l -11 -25 6 25 c 2 14 5 34 6 45 2 19 2 19 6 0 2 -12 -1 -32 -7 -45 z  m -390 -15 c 10 -12 10 -15 -4 -15 -9 0 -16 7 -16 15 0 8 2 15 4 15 2 0 9 -7 16 -15 z  m 95 -110 c 21 -52 35 -98 31 -102 -4 -4 -34 -6 -68 -6 -44 2 -76 10 -115 29 -29 15 -52 31 -51 36 4 10 150 137 159 137 3 1 23 -42 44 -94 z  m -135 60 c 0 -8 -9 -15 -20 -15 -11 0 -20 7 -20 15 0 8 9 15 20 15 11 0 20 -7 20 -15 z  m 400 -35 c 0 -14 -89 -109 -115 -122 -11 -6 3 9 30 34 28 25 57 57 64 72 15 28 21 32 21 16 z  m -460 -25 c 0 -28 -15 -34 -24 -9 -10 25 -7 34 9 34 9 0 15 -9 15 -25 z  m 261 -25 c 5 0 9 -7 9 -16 0 -14 -2 -14 -15 0 -8 8 -14 23 -14 33 1 17 2 17 6 1 2 -10 9 -18 14 -18 z  m -123 -117 c -10 -2 -26 -2 -35 0 -10 3 -2 5 17 5 19 0 27 -2 18 -5 z  m 111 3 c -2 -2 -24 -6 -49 -10 -31 -4 -40 -3 -30 4 13 9 89 15 79 6 z " />
    </g>
  </g>
  <g
     id="l3pqMX2Oqk0zBLx8QpyK9Pm"
     fill="rgb(93,88,154)"
     style="transform: none;">
    <g
       style="transform: none;"
       id="g3">
      <path
         id="p15pLcY5t2"
         d="M 213 898 c -14 -7 -23 -20 -23 -35 0 -20 -5 -23 -35 -23 -28 0 -35 -4 -35 -20 0 -13 -7 -20 -20 -20 -13 0 -20 -7 -20 -20 0 -11 -7 -20 -15 -20 -9 0 -15 -9 -15 -25 0 -15 -6 -25 -14 -25 -14 0 -21 -34 -31 -160 l -4 -55 14 62 c 36 163 140 278 305 339 l 35 13 -60 0 c -33 0 -70 -5 -82 -11 z " />
      <path
         id="pXd9CiXIj"
         d="M 612 886 c 168 -69 269 -181 304 -336 l 12 -55 1 53 c 1 28 -2 52 -7 52 -4 0 -6 18 -4 40 3 25 0 40 -7 40 -6 0 -11 9 -11 20 0 11 -4 20 -10 20 -5 0 -10 7 -10 15 0 8 -9 15 -20 15 -24 0 -89 68 -90 93 0 12 -8 17 -30 17 -20 0 -33 6 -37 18 -10 27 -24 32 -88 32 l -60 0 57 -24 z " />
      <path
         id="pQ8w3vsnN"
         d="M 356 879 c -111 -26 -234 -126 -285 -231 -45 -94 -58 -172 -43 -261 14 -81 58 -180 97 -217 l 25 -23 0 36 c 0 20 -6 40 -13 44 -7 4 -26 37 -42 73 -26 56 -30 77 -30 150 0 73 4 94 30 150 16 36 33 67 37 68 4 2 8 11 8 20 0 10 10 22 23 27 12 6 23 20 25 33 3 16 10 22 28 22 13 0 24 5 24 10 0 6 7 10 15 10 8 0 15 8 15 19 0 15 10 20 48 25 112 15 122 18 122 37 0 21 -19 23 -84 8 z " />
      <path
         id="p3zM5ezGk"
         d="M 480 870 c 0 -15 7 -20 26 -20 29 0 157 -49 162 -62 2 -4 12 -8 23 -8 10 0 19 -5 19 -12 0 -16 51 -68 67 -68 7 0 13 -9 13 -19 0 -11 4 -21 8 -23 12 -4 62 -132 62 -157 0 -14 6 -21 20 -21 26 0 26 20 0 103 -40 130 -158 247 -288 287 -84 26 -112 26 -112 0 z " />
      <path
         id="p1FYYp50lI"
         d="M 385 803 c -52 -11 -115 -36 -115 -44 0 -5 -7 -9 -15 -9 -9 0 -15 -9 -15 -23 0 -21 -18 -36 -62 -53 -10 -3 -18 -17 -18 -30 0 -14 -6 -24 -14 -24 -21 0 -29 -43 -32 -170 -1 -96 2 -123 18 -162 11 -27 24 -48 29 -48 5 0 9 -7 9 -16 0 -9 9 -18 20 -21 11 -3 20 -12 20 -20 0 -8 9 -17 20 -20 11 -3 20 -9 20 -14 0 -5 7 -9 15 -9 8 0 15 -4 15 -10 0 -5 11 -10 24 -10 13 0 26 -5 28 -10 2 -6 27 -13 56 -17 43 -5 52 -3 52 9 0 10 -17 20 -47 27 -58 15 -121 50 -163 92 -84 84 -113 228 -69 344 45 121 168 205 299 205 155 0 275 -92 317 -242 18 -66 43 -79 43 -23 0 39 -37 145 -51 145 -5 0 -9 7 -9 15 0 10 -10 15 -30 15 -27 0 -30 3 -30 30 0 20 -5 30 -15 30 -8 0 -15 5 -15 10 0 6 -9 10 -19 10 -11 0 -21 5 -23 11 -9 26 -173 48 -243 32 z " />
      <path
         id="pFbfIFqEc"
         d="M 385 747 c -97 -32 -157 -82 -198 -166 -78 -160 -11 -339 157 -417 52 -24 106 -32 106 -14 0 5 -17 12 -37 16 -45 8 -133 50 -133 64 0 12 147 135 161 135 6 0 29 -43 50 -95 40 -97 39 -109 -3 -110 -10 0 -18 -4 -18 -10 0 -16 45 -12 104 11 103 38 196 159 196 257 l 0 42 -60 0 c -54 0 -60 -2 -60 -21 0 -18 5 -20 48 -18 l 47 3 -3 -34 c -5 -64 -86 -180 -126 -180 -11 0 -86 166 -86 191 0 5 12 9 28 9 77 1 104 39 30 42 l -43 1 38 4 c 29 3 37 8 37 25 0 19 -5 20 -45 16 -25 -3 -48 -2 -50 3 -6 8 39 196 48 206 19 19 128 -82 153 -143 20 -47 18 -54 -13 -54 -43 0 -73 -11 -73 -26 0 -11 16 -14 65 -14 61 0 65 1 65 23 0 40 -56 141 -100 181 -80 72 -197 102 -285 73 z  m 99 -44 c -20 -88 -43 -175 -48 -180 -8 -8 -185 100 -186 114 0 31 126 92 193 93 47 0 47 0 41 -27 z  m -156 -219 c 34 -21 62 -41 61 -44 0 -3 -37 -35 -82 -72 -89 -73 -99 -74 -117 -9 -13 46 -13 142 0 176 l 10 27 33 -19 c 17 -11 60 -37 95 -59 z  m 176 0 c 18 -17 22 -74 6 -74 -5 0 -10 -9 -10 -20 0 -11 -4 -20 -10 -20 -5 0 -10 5 -10 10 0 6 -8 10 -17 10 -42 0 -71 68 -41 98 17 17 64 15 82 -4 z  m -134 -124 c 0 -11 -4 -20 -10 -20 -5 0 -10 9 -10 20 0 11 5 20 10 20 6 0 10 -9 10 -20 z  m -60 -50 c 0 -11 -4 -20 -10 -20 -5 0 -10 9 -10 20 0 11 5 20 10 20 6 0 10 -9 10 -20 z " />
      <path
         id="pNKbrkr0g"
         d="M 434 469 c -14 -15 -16 -24 -8 -37 15 -23 41 -27 59 -8 21 20 19 43 -4 56 -26 13 -25 13 -47 -11 z " />
      <path
         id="ptahGbWV4"
         d="M 4 345 c 4 -97 18 -141 48 -150 11 -4 18 -16 18 -31 0 -20 5 -24 31 -24 l 31 0 -24 33 c -40 51 -79 135 -94 201 l -14 61 4 -90 z " />
      <path
         id="pcpiDampZ"
         d="M 785 394 c -25 -134 -126 -235 -265 -265 -34 -7 -50 -16 -50 -26 0 -13 10 -15 59 -10 65 7 151 43 151 64 0 7 8 13 18 13 23 0 42 19 42 42 0 10 7 18 15 18 10 0 15 10 15 30 0 20 5 30 15 30 28 0 48 123 21 133 -10 4 -16 -5 -21 -29 z " />
      <path
         id="p1ANo1IHqa"
         d="M 860 413 c 0 -31 -24 -123 -32 -123 -5 0 -8 -11 -8 -25 0 -16 -6 -25 -15 -25 -9 0 -15 -9 -15 -25 0 -18 -5 -25 -19 -25 -11 0 -31 -13 -44 -30 -14 -16 -30 -30 -34 -30 -5 0 -18 -8 -29 -19 -27 -25 -137 -62 -188 -63 -23 0 -58 3 -77 7 -47 10 -152 56 -162 72 -4 7 -24 13 -44 13 l -36 0 24 -27 24 -27 -33 23 -32 22 0 -30 c 0 -21 5 -31 15 -31 8 0 15 -4 15 -10 0 -5 7 -10 15 -10 8 0 15 -4 15 -9 0 -5 19 -17 42 -25 36 -14 77 -16 238 -13 202 3 229 8 258 49 7 10 22 18 33 18 10 0 19 6 19 14 0 7 7 19 15 26 8 7 15 21 15 32 0 16 -7 13 -47 -20 -43 -36 -113 -78 -113 -69 0 2 22 18 49 35 76 50 137 132 171 231 26 79 26 111 0 111 -12 0 -20 -7 -20 -17 z " />
      <path
         id="pyNkfOgSb"
         d="M 916 380 c -4 -27 -24 -84 -46 -127 -21 -43 -37 -79 -36 -81 2 -2 15 0 28 3 38 10 60 66 66 168 5 95 -1 117 -12 37 z " />
    </g>
  </g>
  <g
     id="l2Gf1zRio7RJenn037iZWFe"
     fill="rgb(134,131,169)"
     style="transform: none;">
    <g
       style="transform: none;"
       id="g4">
      <path
         id="p131oN23Jv"
         d="M 250 895 c 0 -11 -11 -15 -40 -15 -29 0 -40 -4 -40 -15 0 -8 -9 -15 -20 -15 -16 0 -20 -7 -20 -30 0 -27 -3 -30 -30 -30 -23 0 -30 -4 -30 -20 0 -11 -7 -20 -15 -20 -8 0 -18 -12 -21 -27 -4 -15 -13 -34 -21 -41 -9 -9 -13 -39 -12 -90 l 0 -77 15 54 c 42 158 141 269 284 321 l 55 19 -52 1 c -41 0 -53 -4 -53 -15 z " />
      <path
         id="pFUDQdcbE"
         d="M 605 891 c 84 -31 141 -69 204 -137 34 -36 61 -69 61 -74 0 -6 5 -10 10 -10 6 0 10 16 10 35 0 19 -4 35 -10 35 -5 0 -10 6 -10 13 0 19 -73 87 -93 87 -9 0 -17 6 -17 13 0 17 -42 37 -75 37 -14 0 -25 5 -25 10 0 6 -24 10 -52 10 l -53 -1 50 -18 z " />
      <path
         id="plgwYYOc7"
         d="M 370 879 c -56 -11 -135 -50 -180 -88 l -35 -30 38 -1 c 20 0 37 5 37 10 0 6 6 10 14 10 8 0 16 4 18 8 2 5 33 21 70 35 77 31 162 35 228 12 23 -8 53 -15 66 -15 15 0 24 -6 24 -15 0 -8 7 -15 15 -15 8 0 15 -4 15 -10 0 -5 13 -10 28 -10 36 0 72 -37 72 -73 0 -15 5 -27 10 -27 6 0 10 -7 10 -15 0 -8 7 -15 15 -15 9 0 15 -9 15 -24 0 -13 7 -43 15 -66 8 -23 15 -53 15 -66 0 -17 6 -24 20 -24 24 0 25 16 5 95 -22 84 -60 147 -126 210 -107 102 -244 142 -389 114 z " />
      <path
         id="pBg3cdhdA"
         d="M 353 798 c -26 -5 -43 -15 -43 -24 0 -9 -11 -14 -30 -14 -20 0 -30 -5 -30 -15 0 -8 -8 -15 -18 -15 -23 0 -52 -30 -52 -53 0 -9 -7 -17 -15 -17 -9 0 -18 -12 -21 -30 -4 -16 -10 -30 -14 -30 -13 0 -30 -94 -30 -160 0 -47 3 -60 15 -60 16 0 18 -11 15 -71 -1 -21 5 -43 14 -52 9 -9 16 -20 16 -26 0 -6 8 -11 18 -11 23 0 52 -30 52 -53 0 -9 7 -17 15 -17 8 0 15 -4 15 -10 0 -5 9 -10 20 -10 11 0 20 -4 20 -10 0 -11 64 -30 103 -30 15 0 27 5 27 10 0 6 14 10 30 10 17 0 30 -4 30 -10 0 -5 18 -10 40 -10 22 0 40 5 40 10 0 6 11 10 25 10 33 0 75 20 75 37 0 7 9 13 20 13 13 0 20 7 20 20 0 14 7 20 21 20 12 0 23 8 26 20 3 11 9 20 13 20 11 0 30 48 30 75 0 14 5 25 10 25 6 0 10 16 10 35 0 19 -4 35 -10 35 -5 0 -10 18 -10 40 0 22 5 40 10 40 6 0 10 13 10 28 0 36 -29 122 -41 122 -5 0 -9 7 -9 15 0 8 -8 15 -18 15 -23 0 -62 40 -62 63 0 9 -7 17 -15 17 -8 0 -15 4 -15 9 0 14 -75 40 -135 47 -46 6 -55 4 -55 -9 0 -10 16 -19 52 -26 114 -25 209 -105 249 -210 17 -45 20 -71 17 -131 -8 -124 -70 -219 -181 -277 -45 -24 -64 -27 -142 -27 -74 -1 -98 3 -136 22 -74 37 -125 87 -160 157 -29 59 -31 69 -27 152 4 106 28 162 100 229 53 49 91 68 168 85 31 7 50 16 50 25 0 16 -41 17 -107 2 z " />
      <path
         id="pUYXSjzVM"
         d="M 119 720 c -72 -96 -106 -219 -89 -326 12 -77 34 -134 51 -134 13 0 9 43 -12 132 -11 49 -11 67 1 115 7 32 14 77 14 101 1 37 4 42 24 42 12 0 22 6 22 14 0 8 5 16 11 18 6 2 9 19 7 38 l -3 35 -26 -35 z " />
      <path
         id="pP1hFOb3x"
         d="M 359 734 c -65 -20 -136 -86 -170 -159 -115 -242 127 -508 375 -414 152 57 236 220 192 371 -32 110 -135 201 -242 214 -35 4 -45 3 -34 -5 12 -8 11 -24 -11 -113 -24 -99 -26 -103 -52 -103 -15 0 -32 -7 -37 -15 -6 -9 -10 -10 -10 -3 0 6 -12 14 -27 16 -26 4 -26 4 5 6 17 0 32 4 32 9 0 4 -32 27 -70 51 -69 42 -70 44 -54 63 29 31 84 61 148 79 44 13 53 18 31 18 -16 0 -51 -7 -76 -15 z  m 282 -58 c 44 -33 99 -117 99 -151 0 -9 -9 -19 -20 -22 -24 -6 -27 -33 -4 -33 11 0 14 -6 9 -20 -5 -14 -2 -20 9 -20 50 0 -28 -175 -95 -214 -21 -12 -29 -13 -36 -3 -13 16 -73 169 -73 184 0 7 11 15 25 19 26 6 34 29 13 37 -7 3 2 6 20 6 26 1 32 -3 32 -19 0 -21 23 -26 68 -14 30 9 28 34 -3 34 -19 0 -25 5 -25 21 0 20 -3 21 -70 14 -62 -6 -70 -5 -70 10 0 15 34 161 45 193 7 20 30 14 76 -22 z  m -340 -172 c 49 -31 89 -59 89 -63 0 -4 -32 -34 -72 -66 -50 -41 -67 -61 -56 -63 10 -2 15 -9 11 -18 -6 -15 -33 -20 -33 -5 0 5 -8 11 -18 13 -22 6 -47 83 -46 143 0 57 13 115 26 115 6 0 51 -25 99 -56 z  M519.8320717337704 448.5692853329663 C 519.8320717337704 416.3705856640546 493.7298683291053 390.2683822593895 461.5311686601937 390.2683822593895 429.332468991282 390.2683822593895 403.2302655866169 416.3705856640546 403.2302655866169 448.5692853329663 403.2302655866169 480.767985001878 429.332468991282 506.870188406543 461.5311686601937 506.870188406543 493.7298683291053 506.870188406543 519.8320717337704 480.767985001878 519.8320717337704 448.5692853329663 Z M498.0 494.0  m 2 -238 c 17 -43 27 -82 24 -88 -11 -18 -144 -4 -190 20 -73 38 -73 41 24 120 100 83 86 88 142 -52 z " />
      <path
         id="pmNzAjY9w"
         d="M496.5540293973813 447.640811082453 C 496.5540293973813 466.5209224103032 481.2486751051367 481.8262767025478 462.3685637772865 481.8262767025478 443.4884524494362 481.8262767025478 428.1830981571916 466.5209224103032 428.1830981571916 447.640811082453 428.1830981571916 428.7606997546027 443.4884524494362 413.4553454623581 462.3685637772865 413.4553454623581 481.2486751051367 413.4553454623581 496.5540293973813 428.7606997546027 496.5540293973813 447.640811082453 Z M437.0 473.0 " />
      <path
         id="p19QAobPRV"
         d="M 899 612 c 11 -26 21 -59 24 -72 2 -14 5 8 6 48 1 70 0 72 -24 72 l -25 0 19 -48 z " />
      <path
         id="p15DKNYxdo"
         d="M 857 401 c -5 -40 -56 -164 -69 -169 -4 -2 -8 -13 -8 -25 -1 -32 -34 -67 -63 -67 -16 0 -26 -7 -30 -20 -3 -13 -14 -20 -30 -20 -14 0 -32 -6 -39 -13 -15 -15 -114 -37 -164 -37 -40 0 -164 39 -182 57 -7 7 -22 13 -32 13 -10 0 -20 9 -23 20 -3 12 -14 20 -26 20 -15 0 -21 6 -21 21 0 12 -8 23 -20 26 -11 3 -20 14 -20 24 0 14 -7 19 -25 19 -34 0 -32 -10 13 -67 160 -202 447 -225 637 -51 81 73 123 154 139 261 7 42 5 47 -12 47 -15 0 -21 -9 -25 -39 z " />
      <path
         id="pTU5cbnVK"
         d="M 1 338 c -1 -77 -1 -78 24 -78 23 0 24 2 13 28 -6 15 -17 50 -24 77 l -12 50 -1 -77 z " />
      <path
         id="pacY5Dy7O"
         d="M 916 369 c -26 -165 -187 -324 -361 -357 -50 -10 -49 -10 33 -11 49 -1 82 3 82 9 0 6 11 10 25 10 14 0 25 4 25 8 0 4 14 13 30 19 17 6 30 18 30 27 0 9 8 16 18 16 23 0 42 19 42 42 0 10 7 18 15 18 9 0 15 9 15 25 0 35 27 85 45 85 12 0 15 16 15 75 0 41 -2 75 -4 75 -2 0 -6 -18 -10 -41 z " />
      <path
         id="pgO6e3t3U"
         d="M 40 215 c 0 -19 5 -35 10 -35 6 0 10 -7 10 -15 0 -8 7 -15 15 -15 8 0 15 -8 15 -18 0 -23 19 -42 42 -42 10 0 18 -7 18 -15 0 -8 7 -15 15 -15 8 0 15 -4 15 -10 0 -5 15 -10 34 -10 26 0 36 -5 41 -20 6 -18 15 -20 88 -19 81 1 82 1 32 11 -111 21 -234 103 -292 193 -15 25 -31 45 -35 45 -5 0 -8 -16 -8 -35 z " />
    </g>
  </g>
  <g
     id="l41nfKejf6kKtUMaJ4kUb4K"
     fill="rgb(172,173,183)"
     style="transform: none;">
    <g
       style="transform: none;"
       id="g5">
      <path
         id="pNjxiOFt"
         d="M 213 903 c -7 -2 -13 -13 -13 -24 0 -14 -7 -19 -30 -19 -27 0 -30 -3 -30 -31 l 0 -30 43 31 c 24 17 70 42 103 55 l 59 25 -60 -1 c -33 0 -66 -3 -72 -6 z " />
      <path
         id="pGugV8fMp"
         d="M 601 895 c 52 -19 120 -55 157 -83 l 32 -24 0 31 c 0 30 -2 31 -40 31 -36 0 -40 3 -40 24 0 30 -16 36 -88 35 l -57 0 36 -14 z " />
      <path
         id="p18vhnx0xY"
         d="M 392 880 c -156 -23 -295 -145 -343 -301 -24 -77 -24 -89 1 -89 16 0 20 7 20 35 0 19 4 35 8 35 4 0 16 23 27 50 11 28 23 50 27 50 4 0 8 6 8 14 0 8 7 16 15 20 8 3 15 14 15 25 0 13 8 21 23 23 14 2 23 11 25 26 3 17 10 22 33 22 19 0 29 5 29 15 0 9 9 15 23 15 12 0 44 7 71 15 27 8 68 15 92 15 44 0 186 -45 192 -61 2 -5 10 -9 17 -9 7 0 15 -5 17 -11 2 -6 19 -9 38 -7 l 35 3 -50 37 c -85 64 -213 95 -323 78 z " />
      <path
         id="pNM5Hdl83"
         d="M 328 794 c -36 -11 -48 -20 -48 -34 0 -16 -7 -20 -30 -20 -25 0 -30 -4 -30 -25 0 -20 -5 -25 -25 -25 -21 0 -25 -5 -25 -30 0 -23 -4 -30 -20 -30 -14 0 -20 -7 -20 -24 0 -13 -5 -26 -10 -28 -6 -2 -14 -29 -17 -61 -5 -47 -3 -57 10 -57 10 0 19 16 26 50 29 135 126 232 261 261 31 7 50 16 50 25 0 18 -59 18 -122 -2 z " />
      <path
         id="pV1x25GvH"
         d="M 480 796 c 0 -8 23 -19 60 -28 60 -14 60 -14 60 7 0 17 -8 24 -31 29 -52 10 -89 7 -89 -8 z " />
      <path
         id="pqotspvZd"
         d="M 60 744 c 0 -39 9 -38 40 6 l 21 30 -30 0 c -29 0 -31 -3 -31 -36 z " />
      <path
         id="poFuDvquC"
         d="M 610 752 c 0 -5 12 -15 26 -23 42 -22 123 -117 135 -160 15 -49 39 -52 39 -4 0 24 -5 35 -15 35 -10 0 -15 10 -15 30 0 17 -4 30 -10 30 -5 0 -10 5 -10 12 0 16 -51 68 -67 68 -7 0 -13 5 -13 10 0 6 -16 10 -35 10 -19 0 -35 -4 -35 -8 z " />
      <path
         id="p6vCWPnLe"
         d="M 453 743 c 45 -5 46 -12 13 -140 l -24 -93 22 0 c 12 0 27 -5 33 -11 12 -12 15 -5 49 136 9 39 21 75 26 82 12 16 -51 33 -112 31 -44 -1 -44 -1 -7 -5 z " />
      <path
         id="p1ETRDEf10"
         d="M 770 716 c 0 -29 4 -36 20 -36 15 0 20 -7 20 -25 0 -27 19 -76 35 -87 15 -11 13 -230 -2 -235 -8 -3 -13 -21 -13 -44 0 -32 -3 -39 -20 -39 -11 0 -20 -6 -20 -14 0 -8 -7 -16 -15 -20 -9 -3 -15 -18 -15 -36 0 -27 -3 -30 -30 -30 -20 0 -30 -5 -30 -15 0 -8 -9 -15 -19 -15 -11 0 -26 -6 -33 -13 -15 -14 -106 -47 -130 -47 -12 0 -18 -8 -18 -21 0 -19 4 -20 43 -14 65 10 156 57 214 109 92 83 153 244 138 359 -10 72 -39 149 -75 201 -41 60 -50 64 -50 22 z " />
      <path
         id="p1PhOheph"
         d="M 352 730 c -46 -19 -113 -72 -136 -108 -24 -36 -49 -104 -27 -73 7 12 15 13 34 4 44 -20 167 -103 167 -112 0 -14 -152 -138 -175 -142 -39 -8 78 -115 145 -133 14 -4 1 5 -29 21 -30 15 -56 33 -58 39 -5 16 166 159 177 148 18 -19 81 -189 77 -206 -4 -15 -1 -18 16 -12 57 16 111 50 147 92 40 47 76 131 67 155 -3 6 -6 3 -6 -8 -3 -55 -101 -195 -137 -195 -13 0 -96 198 -88 211 3 5 12 9 20 9 9 0 14 11 14 35 0 28 -4 35 -19 35 -15 0 -19 -7 -18 -35 2 -60 -51 -90 -96 -54 -30 23 -34 54 -12 87 15 21 14 23 -42 58 -125 78 -132 84 -127 98 7 18 76 64 123 81 20 8 29 14 21 14 -8 0 -25 -4 -38 -9 z  m 58 -340 c 0 -5 -9 -10 -20 -10 -11 0 -20 5 -20 10 0 6 9 10 20 10 11 0 20 -4 20 -10 z " />
      <path
         id="pxIK7ddJ2"
         d="M 866 686 c 14 -25 34 -69 44 -98 l 19 -53 1 62 c 0 82 -23 133 -61 133 l -28 0 25 -44 z " />
      <path
         id="pq69rn2Q1"
         d="M 644 679 c 21 -18 52 -53 67 -78 16 -25 29 -41 29 -35 0 24 -80 118 -115 136 -11 5 -2 -5 19 -23 z " />
      <path
         id="p16Bt0PPDQ"
         d="M 42 675 c -17 -37 -14 -45 4 -12 9 16 14 31 11 33 -2 2 -9 -7 -15 -21 z " />
      <path
         id="pvh3oEV9Q"
         d="M 13 623 c -8 -3 -13 -22 -12 -46 l 0 -42 14 45 c 16 49 15 49 -2 43 z " />
      <path
         id="pAMyr0rEj"
         d="M 745 512 c -6 -6 -38 -12 -72 -14 -35 -2 -65 -7 -68 -9 -2 -3 -8 -20 -11 -37 -6 -29 -4 -32 17 -32 40 0 69 12 69 26 0 8 4 14 9 14 5 0 16 3 24 6 12 4 14 0 10 -14 -6 -25 34 -38 41 -13 8 25 -7 84 -19 73 z " />
      <path
         id="pJnMIrGQu"
         d="M 790 450 c 0 -188 -139 -330 -323 -330 -81 0 -125 13 -188 55 -32 22 -49 29 -45 19 3 -8 6 -24 6 -35 0 -10 5 -19 11 -19 6 0 17 -7 25 -15 9 -8 28 -15 44 -15 16 0 30 -5 32 -10 5 -17 137 -24 201 -11 45 10 57 16 57 31 0 15 9 19 43 22 40 3 42 5 47 38 4 31 9 35 38 38 30 3 32 6 32 43 0 32 4 39 19 39 23 0 41 69 41 160 0 53 -2 60 -20 60 -18 0 -20 -7 -20 -70 z " />
      <path
         id="pxIy84V6b"
         d="M 433 464 c -15 -39 38 -67 60 -32 8 12 7 21 -2 32 -17 21 -50 20 -58 0 z " />
      <path
         id="pYzIQEQE2"
         d="M 100 409 c 0 -49 21 -119 36 -119 9 0 14 -11 14 -30 0 -27 3 -30 30 -30 l 30 0 -25 38 c -13 21 -32 68 -41 105 -18 71 -44 93 -44 36 z " />
      <path
         id="pNdkAoggY"
         d="M 30 400 c 0 -41 43 -153 76 -197 61 -82 127 -130 223 -163 76 -25 101 -26 101 -2 0 15 -14 21 -65 32 -36 7 -65 17 -65 22 0 4 -11 8 -25 8 -16 0 -25 6 -25 15 0 9 -9 15 -25 15 -17 0 -25 5 -25 18 0 23 -19 42 -42 42 -12 0 -18 8 -18 24 0 13 -4 26 -8 28 -11 4 -62 130 -62 151 0 8 -9 17 -20 20 -15 4 -20 0 -20 -13 z " />
      <path
         id="pYnuGfnez"
         d="M 0 328 c 0 -65 22 -138 42 -138 4 0 8 -7 8 -15 0 -8 7 -15 15 -15 8 0 15 -9 15 -20 0 -13 7 -20 20 -20 13 0 20 -7 20 -20 0 -13 7 -20 20 -20 11 0 20 -7 20 -15 0 -8 7 -15 15 -15 8 0 15 -4 15 -8 0 -20 73 -42 138 -42 l 67 1 -65 22 c -164 56 -251 143 -307 307 l -22 65 -1 -67 z " />
      <path
         id="p5UOf73OL"
         d="M 917 358 c -14 -64 -77 -177 -127 -226 -51 -50 -133 -96 -210 -118 l -45 -12 72 -1 c 51 -1 76 3 87 14 8 8 22 15 30 15 9 0 16 8 16 19 0 15 8 21 33 23 24 2 33 8 35 26 2 14 10 22 24 22 11 0 22 8 25 20 3 11 9 20 14 20 5 0 9 7 9 15 0 8 4 15 8 15 21 0 43 77 40 140 -3 60 -4 62 -11 28 z " />
    </g>
  </g>
  <g
     id="l4StORJhTLaeHzey67aTaZA"
     fill="rgb(206,211,200)"
     style="transform: none;">
    <g
       style="transform: none;"
       id="g6">
      <path
         id="pvDJvNipZ"
         d="M 330 861 c -115 -37 -201 -113 -255 -225 -18 -39 -37 -92 -40 -118 -7 -44 -5 -48 13 -48 16 0 21 9 27 55 3 30 11 55 16 55 5 0 9 14 9 30 0 20 5 30 15 30 8 0 15 7 15 15 0 8 5 15 10 15 6 0 10 8 10 18 0 9 10 22 23 27 12 6 23 20 25 33 3 16 10 22 28 22 15 0 24 6 24 15 0 8 8 15 18 15 9 0 41 9 70 20 29 11 61 20 72 20 13 0 20 7 20 20 0 25 -25 25 -100 1 z " />
      <path
         id="pFZNc1wpV"
         d="M 500 860 c 0 -12 7 -20 16 -20 22 0 148 -51 152 -62 2 -4 7 -8 12 -8 4 0 28 -21 53 -46 49 -49 102 -143 113 -200 5 -25 11 -34 26 -34 18 0 20 4 14 40 -23 146 -139 278 -290 330 -75 26 -96 26 -96 0 z " />
      <path
         id="p1AXnkitG3"
         d="M 790 785 c 19 -19 36 -35 39 -35 3 0 -10 16 -29 35 -19 19 -36 35 -39 35 -3 0 10 -16 29 -35 z " />
      <path
         id="p1ZpugCAy"
         d="M 343 803 c -13 -2 -23 -11 -23 -19 0 -9 -11 -14 -30 -14 -16 0 -30 -4 -30 -10 0 -5 -7 -10 -15 -10 -10 0 -15 -10 -15 -30 l 0 -30 53 34 c 28 19 73 40 100 47 85 21 49 49 -40 32 z " />
      <path
         id="pKdBBHrJN"
         d="M 500 798 c 0 -10 16 -20 43 -26 23 -6 68 -27 100 -46 l 57 -35 0 30 c 0 19 -5 29 -15 29 -8 0 -15 4 -15 8 0 14 -72 43 -122 49 -39 5 -48 3 -48 -9 z " />
      <path
         id="pETXuT6Yx"
         d="M 475 630 c -15 -61 -26 -112 -24 -114 2 -2 16 -6 31 -10 30 -7 25 -18 63 134 9 36 21 70 26 76 6 8 2 14 -13 18 -53 14 -54 11 -83 -104 z " />
      <path
         id="p1BxgePrRp"
         d="M 150 661 c -5 -11 -10 -27 -10 -35 0 -9 -4 -16 -10 -16 -11 0 -30 -64 -30 -102 0 -48 25 -31 43 28 10 31 31 76 48 100 l 30 44 -30 0 c -20 0 -34 -7 -41 -19 z " />
      <path
         id="p1BxxSThgl"
         d="M 744 626 c 18 -29 38 -79 45 -110 14 -64 41 -79 41 -23 0 44 -27 132 -45 151 -8 8 -15 19 -15 25 0 6 -13 11 -29 11 l -30 0 33 -54 z " />
      <path
         id="pMoUMZDdz"
         d="M 211 610 l -20 -33 72 -44 c 40 -25 86 -53 102 -63 l 30 -19 17 29 17 30 -92 56 c -51 31 -95 61 -99 67 -3 6 -15 -4 -27 -23 z " />
      <path
         id="pemvL8lbF"
         d="M 740 505 c -8 -2 -32 -6 -52 -10 -24 -4 -38 -11 -38 -20 0 -8 -9 -15 -20 -15 -11 0 -20 7 -20 15 0 11 -12 15 -46 15 -42 0 -45 -1 -38 -22 4 -13 11 -26 16 -29 6 -4 5 -9 -3 -12 -19 -8 61 -8 89 -1 12 4 22 13 22 20 0 8 9 14 20 14 11 0 20 -7 20 -15 0 -10 11 -15 35 -15 34 0 35 1 35 40 0 22 -1 39 -2 39 -2 -1 -10 -3 -18 -4 z " />
      <path
         id="p1xkC6PyK"
         d="M 440 465 c -17 -21 -5 -45 24 -45 28 0 37 17 24 43 -11 21 -31 22 -48 2 z " />
      <path
         id="pEN1Vx9KU"
         d="M 30 416 c 0 -37 35 -140 63 -188 31 -54 111 -129 165 -157 43 -22 143 -51 174 -51 11 0 18 7 18 19 0 14 -9 20 -38 23 -47 7 -170 59 -176 76 -3 6 -1 12 4 12 6 0 10 -4 10 -10 0 -5 14 -10 30 -10 19 0 30 -5 30 -14 0 -15 70 -36 119 -36 51 0 38 27 -19 39 -78 17 -115 36 -171 88 -56 52 -82 96 -100 167 -14 56 -39 63 -39 11 0 -46 38 -145 56 -145 8 0 14 -8 14 -17 0 -9 12 -30 27 -45 l 27 -28 -32 0 c -30 0 -32 2 -32 35 0 18 -6 38 -13 42 -18 11 -68 128 -74 174 -4 30 -10 39 -24 39 -13 0 -19 -7 -19 -24 z " />
      <path
         id="p17voengKE"
         d="M 791 390 c -30 -141 -130 -241 -271 -271 -31 -7 -50 -16 -50 -25 0 -22 77 -17 143 10 36 15 57 20 57 12 0 -11 -33 -22 -142 -48 -37 -9 -48 -17 -48 -31 0 -17 5 -19 47 -12 176 26 332 177 359 346 6 35 4 39 -15 39 -12 0 -21 -6 -21 -15 0 -22 -53 -155 -62 -155 -4 0 2 21 13 46 11 25 23 70 26 100 5 45 3 54 -10 54 -10 0 -19 -16 -26 -50 z  m -11 -175 c 0 -8 -7 -15 -15 -15 -8 0 -15 7 -15 15 0 8 7 15 15 15 8 0 15 -7 15 -15 z  m -70 -70 c 0 -8 -7 -15 -15 -15 -8 0 -15 7 -15 15 0 8 7 15 15 15 8 0 15 -7 15 -15 z " />
      <path
         id="pnqaa8sFc"
         d="M 370 414 c -8 -8 -46 -42 -87 -74 l -73 -59 24 -27 c 22 -26 25 -27 40 -12 9 9 50 45 91 79 l 76 62 -22 24 c -26 27 -32 28 -49 7 z " />
      <path
         id="p7kWeP1D4"
         d="M 485 388 c -11 -6 -21 -12 -23 -14 -6 -5 81 -214 89 -214 14 0 59 23 59 30 0 3 -4 10 -9 16 -4 5 -25 51 -46 102 -21 50 -41 92 -44 92 -3 0 -15 -6 -26 -12 z " />
      <path
         id="p1Erg3bNXw"
         d="M 15 315 c 10 -44 46 -125 56 -125 5 0 9 -6 9 -14 0 -16 18 -31 27 -23 3 3 -7 22 -22 41 -15 20 -38 62 -52 93 -13 32 -21 45 -18 28 z " />
      <path
         id="px1spaCFr"
         d="M 868 229 c -9 -16 -14 -29 -9 -29 8 0 34 50 29 56 -2 1 -11 -11 -20 -27 z " />
      <path
         id="pFP4hinL5"
         d="M 782 119 c -18 -16 -26 -29 -19 -29 14 0 63 47 56 54 -2 2 -19 -9 -37 -25 z " />
      <path
         id="pKwFO5VUK"
         d="M 160 94 c 0 -8 8 -18 18 -21 9 -4 23 -12 29 -19 19 -18 120 -54 151 -53 19 0 8 6 -35 20 -34 10 -84 35 -112 53 -36 24 -51 30 -51 20 z " />
      <path
         id="pyK8J7S7e"
         d="M 610 24 c -41 -15 -56 -23 -40 -24 31 0 120 31 120 42 0 10 -2 10 -80 -18 z " />
    </g>
  </g>
  <g
     id="l1R6XdF6iy9JBqaH0ChbQu8"
     fill="rgb(226,238,201)"
     style="transform: none;">
    <g
       style="transform: none;"
       id="g7">
      <path
         id="p1AjeFrAUg"
         d="M888.6387052106543 450.9332487971747 C 888.6387052106543 686.8242648710008 697.4112535990896 878.0517164825654 461.5202375252635 878.0517164825654 225.6292214514374 878.0517164825654 34.40176983987271 686.8242648710008 34.40176983987271 450.9332487971747 34.40176983987271 215.04223272334855 225.6292214514374 23.81478111178387 461.5202375252635 23.81478111178387 697.4112535990896 23.81478111178387 888.6387052106543 215.04223272334855 888.6387052106543 450.9332487971747 Z M351.0 864.0  M798.4319989007299 447.1700089170295 C 798.4319989007299 262.4253510289293 648.6668628018834 112.66021493008282 463.9222049137833 112.66021493008282 279.1775470256831 112.66021493008282 129.41241092683663 262.4253510289293 129.41241092683663 447.1700089170295 129.41241092683663 631.9146668051296 279.1775470256831 781.6798029039761 463.9222049137833 781.6798029039761 648.6668628018834 781.6798029039761 798.4319989007299 631.9146668051296 798.4319989007299 447.1700089170295 Z M608.0 751.0 " />
      <path
         id="phg0TDeql"
         d="M 479 638 c -13 -57 -24 -107 -24 -113 0 -5 12 -11 26 -13 25 -3 27 1 48 80 11 46 25 95 30 110 7 22 5 27 -13 32 -11 3 -26 6 -32 6 -6 0 -22 -46 -35 -102 z " />
      <path
         id="pt749uYaY"
         d="M 217 616 c -10 -14 -17 -29 -17 -33 0 -4 43 -34 96 -67 90 -55 96 -57 109 -40 8 11 13 23 12 28 -2 6 -41 33 -86 62 -46 28 -87 57 -91 63 -5 8 -12 4 -23 -13 z " />
      <path
         id="pCZ4CDQjn"
         d="M 690 493 c -30 -1 -79 -5 -107 -9 -51 -5 -53 -7 -53 -35 l 0 -29 73 5 c 155 12 157 13 157 46 0 16 -3 28 -7 27 -5 -1 -33 -3 -63 -5 z " />
      <path
         id="pgiZWKFzW"
         d="M489.5740502519046 449.416088279561 C 489.5740502519046 464.4717537146539 477.369021924043 476.6767820425156 462.31335648895 476.6767820425156 447.2576910538571 476.6767820425156 435.0526627259954 464.4717537146539 435.0526627259954 449.416088279561 435.0526627259954 434.3604228444681 447.2576910538571 422.1553945166064 462.31335648895 422.1553945166064 477.369021924043 422.1553945166064 489.5740502519046 434.3604228444681 489.5740502519046 449.416088279561 Z M441.0 462.0 " />
      <path
         id="pfzQQOfCH"
         d="M 339 383 c -120 -100 -121 -101 -107 -123 7 -11 17 -20 22 -20 5 0 40 26 78 58 38 31 77 62 85 69 14 11 13 15 -4 36 l -19 25 -55 -45 z " />
      <path
         id="p17lIDnayh"
         d="M 478 382 c -15 -6 -13 -18 24 -112 23 -58 42 -106 43 -108 1 -1 16 3 32 9 31 10 31 10 15 41 -8 17 -27 63 -42 102 -27 70 -39 81 -72 68 z " />
      <path
         id="pqMYjK8rX"
         d="M 30 277 c 0 -24 58 -116 101 -159 53 -53 152 -106 215 -114 30 -4 24 0 -28 19 -119 41 -201 110 -263 218 -14 24 -25 40 -25 36 z " />
      <path
         id="pQrlnQ601"
         d="M 830 173 c -43 -59 -141 -126 -223 -153 -46 -15 -52 -19 -23 -15 94 15 220 101 269 184 26 45 17 38 -23 -16 z " />
    </g>
  </g>
  <g
     id="l7JiW8zfxM0mvtm1tiPLmeU"
     fill="rgb(249,247,252)"
     style="transform:none;fill:none">
    <g
       style="transform:none;fill:none"
       id="g8">
      <path
         id="pp2XfCW3R"
         d="M 0 728 l 1 -183 18 50 c 54 150 137 241 267 294 l 49 20 -167 0 -168 1 0 -182 z "
         style="fill:none" />
      <path
         id="phhwIkLnU"
         d="M 623 889 c 74 -30 148 -81 196 -135 48 -54 66 -85 92 -159 l 18 -50 1 183 0 182 -177 -1 -178 0 48 -20 z "
         style="fill:none" />
      <path
         id="plaxgm7Jw"
         d="M 0 193 l 0 -193 193 1 192 0 -55 18 c -151 48 -256 151 -307 299 l -22 67 -1 -192 z "
         style="fill:none" />
      <path
         id="pQlzBPyob"
         d="M 911 331 c -14 -55 -68 -151 -109 -194 -41 -43 -119 -90 -192 -114 l -65 -22 193 -1 192 0 0 190 c 0 105 -1 190 -3 190 -2 0 -9 -22 -16 -49 z "
         style="fill:none" />
    </g>
  </g>
</svg>
