<?xml version="1.0" encoding="UTF-8" standalone="no"?>
<svg
   class="img-fluid"
   id="front"
   style="transform: matrix(1.3, 0, 0, 1.3, 0, 0); transform-origin: 50% 50% 0px; cursor: move; transition: none 0s ease 0s;"
   viewBox="0 0 910 910"
   version="1.1"
   sodipodi:docname="front_wheel.svg"
   inkscape:version="1.3.2 (091e20e, 2023-11-25, custom)"
   xmlns:inkscape="http://www.inkscape.org/namespaces/inkscape"
   xmlns:sodipodi="http://sodipodi.sourceforge.net/DTD/sodipodi-0.dtd"
   xmlns="http://www.w3.org/2000/svg"
   xmlns:svg="http://www.w3.org/2000/svg">
  <defs
     id="defs12" />
  <sodipodi:namedview
     id="namedview12"
     pagecolor="#505050"
     bordercolor="#eeeeee"
     borderopacity="1"
     inkscape:showpageshadow="0"
     inkscape:pageopacity="0"
     inkscape:pagecheckerboard="0"
     inkscape:deskcolor="#505050"
     inkscape:zoom="8.5384615"
     inkscape:cx="45.382883"
     inkscape:cy="54.752252"
     inkscape:window-width="1920"
     inkscape:window-height="991"
     inkscape:window-x="-9"
     inkscape:window-y="-9"
     inkscape:window-maximized="1"
     inkscape:current-layer="front" />
  <g
     id="l7fPzHGSAaIdRPzzhm3jOMp"
     fill="rgb(47,34,141)"
     style="transform: none;">
    <g
       style="transform: none;"
       id="g1">
      <path
         id="pTiABaLwV"
         d="M 209 877 c -77 -43 -99 -63 -144 -125 -25 -36 -39 -67 -43 -97 l -5 -45 34 0 c 30 0 37 5 58 46 46 85 162 172 254 189 33 6 37 11 37 36 l 0 29 -67 0 c -58 0 -76 -5 -124 -33 z " />
      <path
         id="p11zlJ3EsF"
         d="M 420 895 c 0 -10 10 -15 29 -15 16 0 31 -5 33 -10 2 -6 32 -16 68 -22 36 -7 71 -18 78 -25 8 -7 33 -27 57 -43 24 -17 53 -44 65 -60 12 -17 30 -30 41 -30 14 0 19 -7 19 -29 0 -17 4 -32 9 -35 4 -3 14 -26 21 -51 11 -40 16 -45 41 -45 28 0 29 2 29 50 0 66 -22 120 -49 120 -16 0 -21 6 -21 27 0 14 -12 41 -26 60 -29 39 -121 103 -146 103 -10 0 -18 5 -18 10 0 6 -45 10 -115 10 -96 0 -115 -3 -115 -15 z " />
      <path
         id="p1Cq0sW7f3"
         d="M 337 746 c -21 -8 -56 -26 -77 -40 -37 -24 -40 -30 -40 -70 0 -26 5 -46 13 -49 6 -3 -7 -6 -30 -6 -40 -1 -43 -3 -54 -39 -6 -21 -9 -70 -7 -110 1 -40 0 -72 -4 -72 -11 0 -10 -62 1 -79 7 -10 21 -12 57 -7 l 49 6 0 -42 c 0 -41 2 -44 53 -71 35 -19 52 -35 52 -48 0 -18 8 -19 106 -19 l 107 0 -6 48 c -3 26 -23 91 -44 143 l -39 94 -45 0 c -43 0 -44 1 -34 22 6 14 19 23 33 23 12 0 22 5 22 10 0 6 15 10 34 10 19 0 36 4 38 9 2 4 49 11 104 15 83 6 103 4 107 -8 5 -11 -16 -15 -114 -21 l -119 -7 0 -42 c 0 -25 14 -77 34 -127 33 -82 35 -84 71 -87 27 -2 45 3 70 22 19 14 43 26 54 26 18 0 21 6 21 50 0 46 2 50 24 50 28 0 36 28 36 124 0 79 -8 106 -30 106 -12 0 -27 17 -41 46 -13 25 -40 61 -61 80 -21 19 -38 43 -38 54 0 16 -7 20 -35 20 -24 0 -35 -5 -35 -15 0 -8 -8 -15 -18 -15 -15 0 -23 -19 -42 -100 -13 -55 -27 -100 -32 -100 -11 0 -10 4 12 90 11 41 20 90 20 108 l 0 32 -67 0 c -38 -1 -85 -7 -106 -14 z  m -2 -221 l 20 -16 -20 10 c -11 5 -29 17 -40 26 l -20 16 20 -10 c 11 -5 29 -17 40 -26 z " />
      <path
         id="p16faBakpK"
         d="M 0 565 c 0 -32 2 -35 30 -35 28 0 30 3 30 35 0 32 -2 35 -30 35 -28 0 -30 -3 -30 -35 z " />
      <path
         id="p85nZx51U"
         d="M 880 455 c 0 -24 5 -35 15 -35 10 0 15 11 15 35 0 24 -5 35 -15 35 -10 0 -15 -11 -15 -35 z " />
      <path
         id="pk7x5ZFlT"
         d="M 100 135 c 0 -33 2 -35 35 -35 33 0 35 2 35 35 0 33 -2 35 -35 35 -33 0 -35 -2 -35 -35 z " />
      <path
         id="pvl5eCICy"
         d="M 740 135 c 0 -33 2 -35 35 -35 33 0 35 2 35 35 0 33 -2 35 -35 35 -33 0 -35 -2 -35 -35 z " />
    </g>
  </g>
  <g
     id="lGoremQGkAKh7l0SphbOK7"
     fill="rgb(61,54,151)"
     style="transform: none;">
    <g
       style="transform: none;"
       id="g2">
      <path
         id="pZn4j7xSb"
         d="M 225 886 c -16 -14 -45 -33 -64 -43 -42 -21 -64 -41 -74 -65 -3 -10 -11 -18 -17 -18 -5 0 -10 -7 -10 -15 0 -8 -4 -15 -10 -15 -5 0 -10 -9 -10 -20 0 -11 -4 -20 -10 -20 -20 0 -30 -82 -30 -246 0 -169 0 -171 30 -230 16 -33 44 -76 62 -96 47 -51 125 -98 165 -98 31 0 33 2 33 34 0 26 -5 36 -20 41 -35 11 -138 114 -169 169 -43 75 -64 172 -51 233 17 73 41 143 50 143 5 0 11 9 15 20 10 31 104 117 162 147 35 19 53 34 53 47 0 19 -16 19 -65 1 -11 -4 -5 2 13 14 18 12 37 21 42 21 6 0 10 5 10 10 0 21 -76 11 -105 -14 z  m -5 -54 c -14 -9 -47 -37 -74 -62 -29 -26 -42 -34 -30 -19 19 26 111 100 123 98 3 0 -5 -8 -19 -17 z " />
      <path
         id="pjri3K56c"
         d="M 340 901 c 0 -5 8 -12 18 -14 16 -4 16 -5 0 -6 -10 0 -18 -7 -18 -15 0 -10 21 -13 98 -12 87 1 103 -2 162 -29 36 -16 66 -33 68 -37 2 -4 8 -8 13 -8 6 0 21 -13 35 -29 14 -17 34 -33 44 -36 11 -4 20 -14 20 -24 0 -9 9 -26 19 -38 10 -11 29 -53 42 -94 13 -41 27 -75 31 -77 11 -5 10 -52 -1 -52 -5 0 -12 -18 -16 -41 -13 -74 -71 -174 -137 -234 -34 -30 -65 -55 -70 -55 -4 0 -8 -16 -8 -35 0 -33 2 -35 34 -35 63 0 150 76 204 179 l 31 57 0 192 c 0 106 -4 192 -9 192 -4 0 -11 13 -15 28 -3 15 -17 40 -30 55 -14 14 -25 28 -25 30 0 9 -82 87 -91 87 -5 0 -9 5 -9 10 0 6 -6 10 -14 10 -8 0 -22 8 -32 18 -15 15 -41 17 -181 19 -93 2 -163 -1 -163 -6 z  m 265 -21 c 14 -7 8 -8 -20 -3 -22 3 -42 7 -44 9 -9 8 45 2 64 -6 z  m 184 -130 c 22 -30 19 -28 -19 10 -25 25 -58 55 -75 68 -16 13 -8 8 19 -10 27 -18 60 -49 75 -68 z " />
      <path
         id="p10WEWDWJB"
         d="M816.5779980665242 447.0279051511757 C 816.5779980665242 646.181119251057 655.1324193139457 807.6266980036355 455.9792052140643 807.6266980036355 256.825991114183 807.6266980036355 95.3804123616045 646.181119251057 95.3804123616045 447.0279051511757 95.3804123616045 247.87469105129435 256.825991114183 86.42911229871584 455.9792052140643 86.42911229871584 655.1324193139457 86.42911229871584 816.5779980665242 247.87469105129435 816.5779980665242 447.0279051511757 Z M329.0 784.0  m 147 -71 c -3 -10 -15 -58 -27 -106 -12 -48 -24 -86 -28 -85 -44 21 -170 106 -171 115 0 16 67 61 117 79 21 7 55 13 76 14 32 0 37 -3 33 -17 z  m 31 -85 c -11 -46 -24 -87 -30 -93 -7 -7 -8 -5 -5 5 3 8 13 50 23 93 10 42 22 77 26 77 4 0 -2 -37 -14 -82 z  m 134 33 c 56 -49 86 -111 88 -178 1 -41 -2 -52 -16 -56 -14 -4 -12 -5 5 -6 19 -1 21 -5 16 -28 -13 -56 -42 -111 -79 -147 -20 -20 -41 -36 -47 -34 -11 4 -78 163 -78 185 0 7 7 13 15 13 8 0 15 7 15 15 0 8 -5 15 -11 15 -7 0 -8 11 -4 30 5 23 3 30 -9 30 -20 0 -20 -2 6 108 26 107 33 111 99 53 z  m -391 -76 c 0 -8 -4 -15 -10 -15 -5 0 -10 7 -10 15 0 8 5 15 10 15 6 0 10 -7 10 -15 z  m 13 -68 c 28 -19 64 -41 80 -51 15 -9 27 -20 27 -25 0 -10 -145 -131 -158 -131 -13 0 -42 96 -42 140 0 43 18 100 31 100 5 0 33 -15 62 -33 z  m 515 -67 c 0 -25 -3 -55 -6 -68 -4 -13 -7 15 -7 62 0 47 3 78 7 68 4 -9 6 -37 6 -62 z  m -408 38 c 0 -5 -4 -8 -10 -8 -5 0 -10 10 -10 23 0 18 2 19 10 7 5 -8 10 -18 10 -22 z  m 10 -113 c 0 -8 -4 -15 -10 -15 -5 0 -10 7 -10 15 0 8 5 15 10 15 6 0 10 -7 10 -15 z  m 101 -111 c 21 -49 35 -91 33 -93 -2 -2 -33 -3 -68 -3 -48 1 -78 8 -115 26 -27 14 -52 29 -54 34 -7 10 143 134 157 129 6 -2 27 -44 47 -93 z  m -161 61 c 0 -8 -4 -15 -10 -15 -5 0 -10 7 -10 15 0 8 5 15 10 15 6 0 10 -7 10 -15 z  m 210 -37 c 0 -19 -2 -20 -10 -8 -13 19 -13 30 0 30 6 0 10 -10 10 -22 z  m -12 -155 c -10 -2 -26 -2 -35 0 -10 3 -2 5 17 5 19 0 27 -2 18 -5 z " />
      <path
         id="pstU761VN"
         d="M 608 503 c -10 -2 -18 -11 -18 -19 0 -10 13 -14 45 -14 38 0 45 3 45 20 0 15 -6 20 -27 19 -16 -1 -36 -3 -45 -6 z " />
      <path
         id="p11dlfjISr"
         d="M 580 430 c 0 -15 7 -20 28 -20 42 0 72 11 72 26 0 10 -14 14 -50 14 -43 0 -50 -3 -50 -20 z " />
      <path
         id="pQnSMMJAs"
         d="M 300 30 c 0 -28 3 -30 35 -30 32 0 35 2 35 30 0 28 -3 30 -35 30 -32 0 -35 -2 -35 -30 z " />
      <path
         id="pHmyQpbiI"
         d="M 540 30 c 0 -28 3 -30 35 -30 32 0 35 2 35 30 0 28 -3 30 -35 30 -32 0 -35 -2 -35 -30 z " />
      <path
         id="pvJ0IN0Wp"
         d="M 410 20 c 0 -17 7 -20 45 -20 38 0 45 3 45 20 0 17 -7 20 -45 20 -38 0 -45 -3 -45 -20 z " />
    </g>
  </g>
  <g
     id="l1GCM05LPeamvjDYQ44GHDj"
     fill="rgb(79,73,153)"
     style="transform: none;">
    <g
       style="transform: none;"
       id="g3">
      <path
         id="pDzNsgEqk"
         d="M 300 900 c 0 -11 50 -11 95 0 24 6 17 8 -32 9 -36 0 -63 -3 -63 -9 z " />
      <path
         id="pI9PVggcu"
         d="M 545 895 c 75 -16 88 -21 153 -62 47 -30 52 -31 52 -13 0 11 -5 20 -11 20 -6 0 -17 6 -25 14 -8 8 -14 19 -14 25 0 6 -13 11 -30 11 -16 0 -30 5 -30 10 0 6 -32 10 -77 9 l -78 -1 60 -13 z " />
      <path
         id="p5Fw9xZem"
         d="M 196 875 c -8 -8 -19 -15 -25 -15 -6 0 -11 -4 -11 -10 0 -5 -7 -10 -15 -10 -9 0 -15 -9 -15 -25 0 -20 -5 -25 -25 -25 -18 0 -25 -5 -25 -20 0 -11 -7 -20 -15 -20 -9 0 -15 -10 -15 -26 0 -14 -7 -32 -15 -40 -8 -9 -15 -26 -15 -40 0 -13 -4 -24 -9 -24 -6 0 -10 -72 -10 -172 -1 -144 2 -178 16 -205 10 -18 21 -33 25 -33 5 0 8 -11 8 -25 0 -14 5 -25 10 -25 6 0 10 -7 10 -15 0 -10 10 -15 30 -15 27 0 30 -3 30 -30 0 -20 5 -30 15 -30 8 0 15 -4 15 -8 0 -4 17 -14 37 -21 21 -8 43 -20 50 -27 10 -10 60 -13 205 -13 177 0 195 2 230 21 21 12 38 28 38 35 0 8 12 13 30 13 27 0 30 3 30 30 0 27 3 30 30 30 20 0 30 5 30 15 0 8 5 15 10 15 6 0 10 11 10 25 0 14 6 25 13 25 21 0 37 105 36 243 -1 114 -10 157 -22 110 -4 -17 -5 -17 -6 0 0 9 -8 17 -17 17 -14 0 -15 -10 -9 -74 6 -61 3 -92 -15 -165 -15 -59 -28 -91 -37 -91 -7 0 -13 -7 -13 -15 0 -8 -4 -15 -10 -15 -5 0 -10 -16 -10 -37 0 -36 0 -36 20 -18 11 10 36 50 55 88 19 38 35 64 35 57 0 -7 -15 -40 -32 -74 -34 -63 -98 -135 -139 -156 -15 -7 -9 2 16 24 l 40 35 -37 1 c -27 0 -38 -4 -38 -15 0 -8 -6 -15 -14 -15 -8 0 -36 -11 -63 -24 -63 -31 -146 -50 -186 -42 -58 11 -142 40 -155 53 -7 7 -19 13 -27 13 -7 0 -15 5 -17 10 -2 6 -21 13 -43 17 l -40 6 25 -28 25 -29 -32 23 c -18 12 -42 36 -54 54 l -23 32 27 -24 27 -24 0 37 c 0 29 -5 39 -19 43 -11 3 -21 17 -24 31 -3 15 -15 52 -26 82 -11 30 -20 76 -21 102 0 58 20 149 37 166 7 7 13 24 13 38 0 15 6 24 15 24 9 0 15 9 15 25 0 14 5 25 10 25 6 0 10 10 10 22 0 22 -1 21 -29 -7 -16 -17 -41 -52 -55 -79 -14 -27 -26 -44 -26 -37 0 18 28 70 67 123 21 30 61 64 104 90 38 24 69 46 69 51 0 13 -68 7 -84 -8 z  m -176 -345 c -5 -22 -8 -27 -9 -13 -1 21 9 56 14 51 2 -2 0 -19 -5 -38 z " />
      <path
         id="p170y3JURo"
         d="M 343 878 c -46 -10 -61 -38 -20 -38 48 0 97 13 97 25 0 8 6 16 13 18 21 9 -46 5 -90 -5 z " />
      <path
         id="p121HBbQpp"
         d="M 478 884 c 6 -3 12 -11 12 -18 0 -7 27 -18 63 -25 92 -19 97 -21 97 -37 0 -8 7 -14 15 -14 8 0 15 -4 15 -10 0 -5 16 -10 37 -10 36 0 36 0 18 20 -31 35 -155 89 -215 95 -30 3 -49 2 -42 -1 z " />
      <path
         id="pudW0ylng"
         d="M 218 821 c -55 -35 -67 -51 -39 -51 12 0 21 5 21 10 0 6 14 10 30 10 20 0 30 5 30 15 0 8 5 15 10 15 6 0 10 7 10 15 0 21 -10 19 -62 -14 z " />
      <path
         id="pKGyYFv17"
         d="M 303 779 c -29 -11 -53 -24 -53 -29 0 -4 -9 -10 -20 -13 -14 -3 -20 -14 -20 -31 0 -21 -5 -26 -25 -26 -14 0 -25 -5 -25 -11 0 -6 -7 -17 -15 -25 -8 -9 -15 -28 -15 -44 0 -16 -5 -30 -12 -32 -16 -6 -22 -176 -8 -228 6 -23 20 -50 31 -61 10 -10 19 -28 19 -39 0 -16 7 -20 31 -20 l 30 0 -30 43 c -17 23 -38 71 -47 107 -47 183 70 361 259 395 21 4 36 12 34 19 -6 19 -79 16 -134 -5 z " />
      <path
         id="py5FeKKS1"
         d="M 478 793 c -32 -8 -19 -20 27 -26 100 -14 185 -75 236 -169 31 -58 34 -70 34 -148 0 -65 -5 -96 -21 -131 -45 -97 -134 -166 -244 -190 -34 -7 -50 -16 -50 -26 0 -13 9 -15 56 -9 67 8 154 43 154 62 0 8 8 14 18 14 23 0 42 19 42 42 0 10 7 18 15 18 9 0 15 9 15 25 0 14 10 35 22 47 19 19 22 34 24 135 1 64 -1 113 -7 113 -5 0 -9 11 -9 25 0 28 -20 75 -32 75 -4 0 -8 6 -8 13 0 7 -10 17 -22 22 -13 6 -27 20 -33 33 -5 12 -15 22 -22 22 -7 0 -13 5 -13 10 0 6 -9 10 -20 10 -11 0 -20 5 -20 10 0 6 -13 10 -30 10 -16 0 -30 5 -30 10 0 10 -49 12 -82 3 z " />
      <path
         id="p18Q79rOlL"
         d="M 346 735 c -103 -42 -174 -129 -197 -240 -11 -55 -10 -68 9 -131 27 -90 80 -151 164 -193 58 -30 128 -41 128 -22 0 5 -23 14 -52 20 -64 14 -130 50 -124 68 3 7 -1 13 -9 13 -8 0 -15 7 -15 15 0 8 5 15 10 15 6 0 10 11 10 25 0 21 5 25 30 25 25 0 30 4 30 24 0 20 6 25 35 28 19 2 35 0 35 -4 0 -4 -11 -8 -25 -8 -20 0 -25 -5 -25 -25 0 -21 -5 -25 -30 -25 -27 0 -30 -3 -30 -31 0 -36 -6 -38 85 37 43 36 55 41 85 36 29 -5 31 -7 13 -11 -21 -6 -21 -6 13 -90 35 -87 34 -100 -8 -101 -10 0 -18 -4 -18 -10 0 -19 66 -10 125 18 114 54 179 155 178 277 -1 143 -81 253 -217 298 -27 10 -58 17 -68 17 -19 0 -25 -26 -7 -32 10 -3 7 -22 -32 -171 -8 -31 -13 -37 -30 -32 -15 5 -19 2 -19 -14 0 -12 -4 -21 -10 -21 -5 0 -10 5 -10 10 0 6 -11 10 -25 10 -14 0 -25 5 -25 10 0 6 14 10 30 10 38 0 38 11 1 33 -37 22 -41 21 -41 -3 0 -11 -4 -20 -10 -20 -5 0 -10 5 -10 10 0 6 -11 10 -25 10 -14 0 -25 5 -25 10 0 6 14 10 30 10 38 0 38 11 -1 34 l -31 18 23 24 c 28 30 119 74 153 74 16 0 26 6 26 15 0 21 -26 18 -94 -10 z  m 204 -15 c 0 -5 -6 -10 -14 -10 -8 0 -17 -10 -19 -22 -4 -20 -4 -20 -6 4 -1 18 5 28 17 31 9 3 18 5 20 6 1 0 2 -3 2 -9 z  m 48 -24 c 102 -54 184 -236 106 -236 -17 0 -24 -6 -24 -20 0 -16 7 -20 31 -20 29 0 30 -1 24 -32 -12 -52 -51 -123 -85 -152 -38 -31 -46 -32 -60 -6 -16 29 -30 24 -30 -10 0 -16 -4 -30 -10 -30 -5 0 -10 14 -10 30 0 17 -4 30 -10 30 -22 0 -8 29 15 32 l 24 3 -18 41 c -37 82 -37 84 6 84 53 0 83 10 83 26 0 10 -13 14 -45 14 -33 0 -45 -4 -45 -15 0 -8 -4 -15 -10 -15 -12 0 -12 3 -4 24 3 9 15 16 25 16 12 0 19 7 19 20 0 16 -7 20 -34 20 l -33 0 25 105 c 15 58 28 105 30 105 1 0 15 -6 30 -14 z  m -280 -212 c 34 -21 61 -42 60 -45 -2 -4 -39 -37 -83 -73 -73 -60 -81 -65 -93 -49 -31 42 -42 152 -21 212 l 11 32 32 -19 c 17 -10 59 -36 94 -58 z  M508.4618389207641 448.0133327593473 C 508.4618389207641 418.6089717103918 484.6248945417617 394.7720273313894 455.2205334928061 394.7720273313894 425.8161724438505 394.7720273313894 401.97922806484814 418.6089717103918 401.97922806484814 448.0133327593473 401.97922806484814 477.4176938083029 425.8161724438505 501.2546381873053 455.2205334928061 501.2546381873053 484.6248945417617 501.2546381873053 508.4618389207641 477.4176938083029 508.4618389207641 448.0133327593473 Z M494.0 484.0 " />
      <path
         id="p8KuzJcW7"
         d="M 638 503 c -10 -2 -18 -11 -18 -19 0 -10 13 -14 45 -14 38 0 45 3 45 20 0 15 -6 20 -27 19 -16 -1 -36 -3 -45 -6 z " />
      <path
         id="pp1tsfFe1"
         d="M496.7353103135409 447.6313242276316 C 496.7353103135409 469.4447611728178 479.0520257724627 487.1280457138961 457.2385888272764 487.1280457138961 435.4251518820902 487.1280457138961 417.7418673410119 469.4447611728178 417.7418673410119 447.6313242276316 417.7418673410119 425.8178872824453 435.4251518820902 408.1346027413671 457.2385888272764 408.1346027413671 479.0520257724627 408.1346027413671 496.7353103135409 425.8178872824453 496.7353103135409 447.6313242276316 Z M432.0 478.0 " />
      <path
         id="p30fcZcY8"
         d="M 770 718 c 0 -31 3 -38 20 -38 15 0 20 -7 20 -27 0 -38 13 -55 39 -51 l 21 3 -20 40 c -11 23 -33 56 -50 75 l -29 35 -1 -37 z " />
      <path
         id="p18LOvkRmr"
         d="M 800 743 c 0 -3 11 -20 24 -37 12 -17 33 -49 44 -71 l 21 -40 1 32 c 0 44 -9 63 -31 63 -14 0 -19 7 -19 30 0 23 -4 30 -20 30 -11 0 -20 -3 -20 -7 z " />
      <path
         id="pGuM61rFx"
         d="M 230 192 c 0 -13 6 -22 15 -22 8 0 15 -8 15 -18 0 -22 39 -42 80 -42 17 0 30 -4 30 -10 0 -5 16 -10 35 -10 49 0 47 27 -2 36 -42 7 -128 47 -155 72 -17 14 -18 13 -18 -6 z " />
    </g>
  </g>
  <g
     id="l7hLaWWbLs4l9XEADJEKT02"
     fill="rgb(97,92,156)"
     style="transform:none;fill:none">
    <g
       style="transform:none;fill:none"
       id="g4">
      <path
         id="p9Tcc2Aui"
         d="M 550 896 c 46 -10 87 -25 143 -54 4 -2 7 3 7 11 0 9 -9 19 -20 22 -11 3 -20 13 -20 21 0 11 -17 14 -82 13 l -83 -2 55 -11 z "
         style="fill:none" />
      <path
         id="p14neOs9w4"
         d="M 243 883 c -18 -9 -33 -23 -33 -30 0 -7 -11 -13 -25 -13 -16 0 -25 -6 -25 -15 0 -20 -1 -20 72 24 36 22 76 41 89 44 17 3 14 4 -11 5 -19 0 -50 -7 -67 -15 z "
         style="fill:none" />
      <path
         id="p1Cax9ghCP"
         d="M 378 883 c -33 -8 -20 -33 17 -33 28 0 35 4 35 20 0 20 -14 23 -52 13 z "
         style="fill:none" />
      <path
         id="p1ClAc1ZxP"
         d="M 480 872 c 0 -17 9 -22 55 -27 30 -4 55 -11 55 -15 0 -11 48 -30 75 -30 18 0 25 -5 25 -20 0 -16 7 -20 36 -20 31 0 35 2 24 14 -35 43 -146 97 -228 111 -38 6 -42 5 -42 -13 z "
         style="fill:none" />
      <path
         id="p7qsk5A5Z"
         d="M 244 835 c -34 -19 -67 -41 -74 -50 -11 -13 -8 -15 24 -15 25 0 36 4 36 15 0 8 9 15 20 15 34 0 90 32 90 52 0 27 -27 22 -96 -17 z "
         style="fill:none" />
      <path
         id="pxFgXHclF"
         d="M 711 827 c 2 -1 14 -11 27 -21 22 -19 22 -19 22 2 0 17 -6 22 -27 22 -14 0 -24 -1 -22 -3 z "
         style="fill:none" />
      <path
         id="p10gaKVznv"
         d="M 395 806 c -5 -3 -27 -7 -47 -11 -23 -3 -38 -12 -38 -20 0 -7 -9 -17 -20 -20 -11 -3 -20 -11 -20 -16 0 -5 -6 -9 -14 -9 -7 0 -16 -9 -19 -19 -4 -18 -2 -18 32 4 81 54 203 71 290 40 40 -14 41 -14 41 9 0 16 -7 26 -22 30 -29 8 -170 17 -183 12 z "
         style="fill:none" />
      <path
         id="pJ1PQ5Q2o"
         d="M 813 721 c 50 -69 67 -105 83 -175 l 14 -61 -5 91 c -5 102 -11 124 -31 124 -8 0 -14 9 -14 20 0 11 -4 20 -10 20 -5 0 -10 7 -10 15 0 10 -10 15 -31 15 l -31 0 35 -49 z "
         style="fill:none" />
      <path
         id="p1GGKEvWYP"
         d="M 356 738 c -41 -14 -76 -37 -113 -72 -29 -29 -53 -57 -53 -63 0 -7 15 -14 33 -16 29 -4 28 -4 -5 -3 -29 1 -39 -3 -47 -20 -16 -36 -24 -94 -13 -94 5 0 12 18 16 39 7 48 19 57 48 37 28 -20 38 -20 38 -1 0 8 7 15 15 15 8 0 15 -4 15 -9 0 -5 12 -12 28 -14 22 -3 20 -4 -10 -6 -46 -1 -48 -11 -9 -34 36 -21 41 -21 41 -2 0 30 30 16 32 -15 0 -16 1 -34 2 -40 1 -5 -35 -39 -79 -76 -89 -74 -94 -73 -118 14 -11 41 -27 57 -27 27 0 -42 45 -129 90 -175 48 -47 134 -90 180 -90 35 0 22 19 -17 26 -45 8 -133 50 -133 64 0 13 147 135 163 135 14 0 90 -181 82 -195 -3 -6 -15 -10 -26 -10 -10 0 -19 -4 -19 -10 0 -30 128 14 186 64 43 37 104 140 104 175 0 38 -16 22 -33 -33 -17 -53 -86 -142 -115 -148 -11 -3 -92 168 -92 194 0 4 10 8 23 8 65 1 97 39 35 41 -31 2 -31 2 -5 6 19 3 27 10 27 24 0 18 -6 20 -42 17 -47 -3 -47 -4 -33 64 6 31 4 37 -12 40 -17 3 -17 7 -6 58 9 43 11 48 12 23 1 -42 27 -44 36 -3 4 17 10 30 14 30 4 0 28 -13 54 -29 30 -20 56 -48 76 -83 41 -71 40 -84 -9 -92 -51 -8 -56 -36 -7 -36 81 0 91 16 57 94 -64 149 -236 228 -384 174 z  m 124 -18 c 0 -21 -43 -185 -51 -194 -7 -8 -173 87 -185 105 -7 13 37 50 91 75 52 25 145 33 145 14 z  m 18 -232 c 30 -30 1 -98 -41 -98 -45 0 -70 48 -47 91 12 22 68 27 88 7 z  m -138 -138 c 0 -13 -7 -20 -20 -20 -13 0 -20 7 -20 20 0 13 7 20 20 20 13 0 20 -7 20 -20 z  m -60 -50 c 0 -13 -7 -20 -20 -20 -13 0 -20 7 -20 20 0 13 7 20 20 20 13 0 20 -7 20 -20 z  m 230 0 c 0 -11 -4 -20 -10 -20 -5 0 -10 9 -10 20 0 11 5 20 10 20 6 0 10 -9 10 -20 z "
         style="fill:none" />
      <path
         id="phO9EKMn7"
         d="M493.7029276068141 447.9734649294628 C 493.7029276068141 468.3444812125372 477.1889560474613 484.85845277189 456.8179397643869 484.85845277189 436.4469234813125 484.85845277189 419.9329519219597 468.3444812125372 419.9329519219597 447.9734649294628 419.9329519219597 427.6024486463884 436.4469234813125 411.0884770870356 456.8179397643869 411.0884770870356 477.1889560474613 411.0884770870356 493.7029276068141 427.6024486463884 493.7029276068141 447.9734649294628 Z M438.0 479.0 "
         style="fill:none" />
      <path
         id="p10FpCaxBX"
         d="M 70 723 c 0 -14 1 -24 3 -22 1 2 11 14 21 27 19 22 19 22 -2 22 -17 0 -22 -6 -22 -27 z "
         style="fill:none" />
      <path
         id="pyV2IDRjR"
         d="M 108 720 l -28 -35 26 -3 c 33 -4 36 -1 32 39 l -3 34 -27 -35 z "
         style="fill:none" />
      <path
         id="prdLImOn5"
         d="M 610 743 c 0 -5 16 -18 35 -31 l 35 -22 0 30 c 0 28 -3 30 -35 30 -19 0 -35 -3 -35 -7 z "
         style="fill:none" />
      <path
         id="pk0eDN9tY"
         d="M 770 728 c 0 -16 5 -28 10 -28 6 0 10 -11 10 -25 0 -15 6 -25 15 -25 8 0 17 -12 20 -27 4 -16 13 -53 21 -84 8 -30 14 -93 14 -139 0 -90 11 -97 29 -20 l 10 45 -5 -52 c -3 -33 -1 -53 6 -53 27 0 -8 228 -50 315 -15 33 -40 74 -54 90 l -25 30 -1 -27 z "
         style="fill:none" />
      <path
         id="pBxKhB4b7"
         d="M 729 625 c 16 -24 34 -66 41 -92 11 -37 15 -43 21 -27 13 33 10 84 -5 84 -16 0 -26 21 -26 56 0 20 -5 24 -30 24 l -30 0 29 -45 z "
         style="fill:none" />
      <path
         id="pRdQWQw9k"
         d="M 170 640 c 0 -11 2 -20 5 -20 2 0 9 9 15 20 9 16 8 20 -5 20 -8 0 -15 -9 -15 -20 z "
         style="fill:none" />
      <path
         id="py4JE5gSm"
         d="M 1 563 c 1 -71 2 -74 10 -36 4 24 13 51 19 60 10 16 10 15 5 -4 -17 -62 -22 -134 -14 -193 18 -122 99 -250 195 -306 24 -14 44 -28 44 -31 0 -3 -25 9 -55 26 -51 29 -55 30 -55 11 0 -11 6 -20 14 -20 8 0 17 -9 21 -19 12 -38 59 -46 270 -46 219 0 260 8 271 51 4 15 14 24 25 24 13 0 19 7 19 21 0 20 0 20 -27 1 -16 -11 -44 -27 -63 -36 -19 -9 -27 -11 -16 -4 97 65 159 134 192 213 14 35 14 35 -11 35 -18 0 -25 -5 -25 -20 0 -11 -4 -20 -10 -20 -5 0 -10 -13 -10 -29 0 -23 -5 -30 -22 -33 -17 -2 -24 -11 -26 -30 -3 -22 -9 -28 -28 -28 -15 0 -24 -6 -24 -15 0 -8 -9 -15 -19 -15 -10 0 -21 -7 -25 -15 -3 -8 -14 -15 -25 -15 -11 0 -21 -4 -23 -8 -1 -5 -37 -16 -78 -24 -69 -16 -81 -16 -150 0 -41 8 -76 19 -78 24 -2 4 -12 8 -23 8 -11 0 -22 7 -25 15 -4 8 -12 15 -20 15 -8 0 -14 5 -14 10 0 6 -16 10 -35 10 -33 0 -35 2 -35 35 0 24 -5 35 -15 35 -8 0 -15 7 -15 15 0 8 -9 24 -20 35 -11 11 -20 31 -20 45 0 14 -4 25 -10 25 -5 0 -10 16 -10 35 0 19 -3 35 -7 35 -7 0 -8 27 -4 143 1 17 7 27 16 27 10 0 15 11 15 35 0 38 -13 46 -29 18 -10 -17 -10 -17 -11 0 0 10 -8 17 -20 17 -18 0 -20 -6 -19 -77 z "
         style="fill:none" />
      <path
         id="pHUdiclqd"
         d="M 111 566 c -28 -112 4 -134 36 -26 l 20 70 -22 0 c -18 0 -25 -8 -34 -44 z "
         style="fill:none" />
      <path
         id="pWoZsg3zy"
         d="M 650 440 c 0 -21 23 -26 68 -14 41 11 26 34 -23 34 -38 0 -45 -3 -45 -20 z "
         style="fill:none" />
      <path
         id="prsbCBXj4"
         d="M 6 331 c 7 -107 18 -139 51 -147 14 -4 23 -14 23 -25 0 -13 7 -19 21 -19 20 0 20 0 1 28 -36 51 -74 135 -88 196 l -14 61 6 -94 z "
         style="fill:none" />
      <path
         id="pNE5LBtAl"
         d="M 100 396 c 0 -56 12 -86 35 -86 22 0 22 0 7 55 -16 56 -42 76 -42 31 z "
         style="fill:none" />
      <path
         id="p19eLZl84c"
         d="M 775 378 c -27 -124 -127 -222 -255 -249 -51 -11 -71 -39 -27 -39 42 0 97 13 97 22 0 19 29 38 69 44 31 5 41 11 41 25 0 12 7 19 20 19 13 0 20 7 20 20 0 11 6 20 13 20 17 0 37 42 37 75 0 14 5 25 10 25 6 0 10 16 10 35 0 46 -26 47 -35 3 z "
         style="fill:none" />
      <path
         id="pVR4HD5Zi"
         d="M 867 272 c -8 -20 -31 -61 -51 -90 -33 -50 -34 -53 -13 -50 16 2 23 11 25 31 3 21 9 27 28 27 17 0 24 5 24 20 0 11 5 20 10 20 12 0 13 67 1 74 -5 3 -16 -11 -24 -32 z "
         style="fill:none" />
      <path
         id="p1CffbQjcI"
         d="M 150 265 c 0 -24 5 -35 15 -35 8 0 15 -8 15 -18 0 -23 19 -42 42 -42 10 0 18 -7 18 -15 0 -9 9 -15 24 -15 35 0 56 -10 56 -26 0 -9 12 -14 35 -14 51 0 44 22 -14 43 -52 18 -137 88 -160 131 -20 36 -31 33 -31 -9 z "
         style="fill:none" />
    </g>
  </g>
  <g
     id="l1Z8mK89ctGr6SDizs9JTMn"
     fill="rgb(117,113,165)"
     style="transform:none;fill:none">
    <g
       style="transform:none;fill:none"
       id="g5">
      <path
         id="p119njs4do"
         d="M 310 900 c 0 -12 34 -12 70 0 20 7 16 8 -22 9 -27 1 -48 -3 -48 -9 z "
         style="fill:none" />
      <path
         id="pgt2PuOL4"
         d="M 530 901 c 45 -14 100 -20 100 -12 0 10 -52 21 -94 20 -30 -1 -30 -1 -6 -8 z "
         style="fill:none" />
      <path
         id="p1D1BWk6BU"
         d="M 395 885 c -5 -2 -27 -6 -47 -10 -24 -4 -38 -11 -38 -20 0 -17 15 -18 84 -9 36 5 46 11 46 25 0 18 -18 23 -45 14 z "
         style="fill:none" />
      <path
         id="p11pVF6aha"
         d="M 470 870 c 0 -21 4 -22 45 -18 34 4 45 2 45 -8 0 -9 12 -14 36 -14 75 0 17 38 -83 55 -40 6 -43 5 -43 -15 z "
         style="fill:none" />
      <path
         id="pRkyKxfxF"
         d="M 650 870 c 0 -5 3 -10 8 -10 4 0 31 -18 60 -40 45 -35 52 -37 52 -20 0 11 -4 20 -10 20 -5 0 -10 9 -10 20 0 11 -7 20 -15 20 -8 0 -15 5 -15 10 0 6 -16 10 -35 10 -19 0 -35 -4 -35 -10 z "
         style="fill:none" />
      <path
         id="p15uJ0wmfL"
         d="M 180 840 c 0 -5 -7 -10 -15 -10 -8 0 -15 -7 -15 -15 0 -17 16 -11 55 19 20 15 20 15 -2 16 -13 0 -23 -4 -23 -10 z "
         style="fill:none" />
      <path
         id="pkRCOy0No"
         d="M 653 819 c 4 -13 7 -27 7 -31 0 -5 9 -8 20 -8 11 0 20 -7 20 -15 0 -10 10 -15 30 -15 27 0 30 -3 30 -30 0 -23 4 -30 20 -30 16 0 20 -7 20 -30 0 -16 5 -30 10 -30 6 0 10 -9 10 -20 0 -11 7 -20 15 -20 11 0 15 -12 15 -49 0 -40 3 -50 20 -54 26 -7 26 12 0 94 -32 104 -112 204 -199 249 -22 12 -24 11 -18 -11 z "
         style="fill:none" />
      <path
         id="pwQX83dFH"
         d="M 189 798 l -44 -33 35 -3 c 19 -2 36 1 38 7 2 6 10 11 18 11 8 0 14 10 14 25 0 33 -8 32 -61 -7 z "
         style="fill:none" />
      <path
         id="prYgpccmg"
         d="M 390 792 c 0 -15 10 -18 70 -18 60 -1 81 -7 140 -36 47 -23 70 -30 70 -21 0 7 -4 13 -10 13 -5 0 -10 9 -10 19 0 24 -19 31 -81 31 -37 0 -49 4 -49 15 0 12 -14 15 -65 15 -56 0 -65 -3 -65 -18 z "
         style="fill:none" />
      <path
         id="paZoCjjJm"
         d="M 280 765 c 0 -9 -9 -15 -25 -15 -21 0 -25 -5 -25 -29 l 0 -30 57 35 c 31 19 64 34 72 34 14 0 14 1 1 10 -24 16 -80 12 -80 -5 z "
         style="fill:none" />
      <path
         id="pBpsKmein"
         d="M 394 746 c -54 -13 -131 -54 -154 -80 -20 -25 -4 -19 53 19 68 45 174 69 189 42 5 -10 21 -17 38 -17 17 0 30 -5 30 -12 0 -9 3 -8 10 2 22 36 137 -66 165 -147 l 13 -38 -34 -8 c -51 -13 -44 -37 11 -37 41 0 45 2 45 23 0 41 -59 145 -106 186 -71 62 -173 88 -260 67 z "
         style="fill:none" />
      <path
         id="pOt1fStVr"
         d="M 806 735 c 9 -14 18 -25 20 -25 2 0 4 11 4 25 0 18 -5 25 -20 25 -20 0 -20 -1 -4 -25 z "
         style="fill:none" />
      <path
         id="pgQ62i6BX"
         d="M 26 704 c -3 -9 -6 -33 -6 -55 0 -21 -4 -39 -10 -39 -6 0 -9 -25 -9 -57 1 -32 4 -45 6 -30 4 23 32 98 70 185 3 8 -4 12 -20 12 -14 0 -28 -7 -31 -16 z "
         style="fill:none" />
      <path
         id="pKGTCp9cr"
         d="M 97 702 c -44 -49 -98 -232 -68 -232 6 0 11 7 11 15 0 8 4 15 9 15 6 0 13 20 17 45 3 25 10 45 15 45 5 0 9 14 9 30 0 20 5 30 15 30 10 0 15 11 15 35 0 40 -1 41 -23 17 z "
         style="fill:none" />
      <path
         id="pF02R9nDP"
         d="M 843 682 c 19 -20 44 -88 57 -147 7 -34 8 -28 9 43 1 76 -1 82 -19 82 -13 0 -20 7 -20 20 0 14 -7 20 -22 20 -20 0 -20 -1 -5 -18 z "
         style="fill:none" />
      <path
         id="pVbBMSWXk"
         d="M 506 649 c -10 -51 -7 -79 8 -79 8 0 18 19 25 44 15 60 14 66 -8 66 -13 0 -20 -10 -25 -31 z "
         style="fill:none" />
      <path
         id="pHYAmn9hA"
         d="M 150 635 c 0 -44 9 -44 38 0 l 22 35 -30 0 c -28 0 -30 -3 -30 -35 z "
         style="fill:none" />
      <path
         id="pr6FxO01D"
         d="M 197 611 c -21 -35 -21 -41 -3 -41 8 0 16 -4 18 -9 2 -5 40 -32 86 -61 45 -29 82 -56 82 -60 0 -4 -32 -34 -72 -66 l -72 -59 37 -3 c 44 -4 50 -22 7 -22 -16 0 -30 -4 -30 -10 0 -5 -7 -10 -15 -10 -8 0 -15 6 -15 14 0 8 -5 16 -10 18 -31 10 -52 174 -30 232 6 16 6 26 0 26 -13 0 -30 -66 -30 -116 0 -113 73 -223 185 -275 61 -29 95 -36 95 -20 0 5 -21 14 -47 21 -55 13 -113 46 -112 63 0 7 38 43 85 81 84 69 84 69 64 88 -44 41 -6 121 50 103 11 -4 20 -2 20 4 0 6 -4 11 -10 11 -5 0 -10 9 -10 20 0 27 -26 26 -33 -1 -4 -16 -11 -20 -26 -16 -14 3 -21 0 -21 -9 0 -8 -7 -14 -15 -14 -8 0 -15 5 -15 10 0 6 -11 10 -25 10 -16 0 -25 6 -25 15 0 8 -7 15 -15 15 -8 0 -15 5 -15 10 0 6 7 10 15 10 24 0 18 14 -14 33 -38 22 -39 22 -44 -10 -3 -23 -4 -21 -6 10 -1 45 -11 47 -34 8 z  m 173 -261 c 0 -5 -13 -10 -30 -10 -16 0 -30 5 -30 10 0 6 14 10 30 10 17 0 30 -4 30 -10 z "
         style="fill:none" />
      <path
         id="pyNVT8S96"
         d="M 730 635 c 0 -3 9 -23 19 -43 11 -21 22 -54 26 -74 5 -26 11 -35 21 -31 16 6 20 73 4 73 -5 0 -10 11 -10 24 0 40 -11 56 -36 56 -13 0 -24 -2 -24 -5 z "
         style="fill:none" />
      <path
         id="pEDH6P8W0"
         d="M 123 553 c -18 -3 -23 -11 -23 -34 0 -17 6 -36 13 -44 11 -11 15 -5 24 36 5 27 9 48 9 48 -1 -1 -11 -4 -23 -6 z "
         style="fill:none" />
      <path
         id="pUovYrXHz"
         d="M 558 493 c -10 -2 -18 -9 -18 -14 0 -5 -7 -9 -16 -9 -8 0 -13 -4 -10 -9 12 -18 -13 -60 -39 -67 -39 -10 -32 -34 10 -34 30 0 35 3 35 24 0 19 7 26 30 31 33 7 40 31 13 38 -10 3 -1 5 20 6 30 1 37 5 37 21 0 20 -20 24 -62 13 z "
         style="fill:none" />
      <path
         id="p7XfM5L2v"
         d="M 437 479 c -19 -11 -23 -44 -7 -54 6 -3 10 1 10 9 0 9 9 16 20 16 11 0 20 -4 20 -10 0 -5 -7 -10 -15 -10 -8 0 -15 -4 -15 -10 0 -14 13 -13 28 2 30 30 -4 77 -41 57 z "
         style="fill:none" />
      <path
         id="phl6hBFHr"
         d="M 640 440 c 0 -19 4 -20 50 -14 50 7 50 7 50 -22 0 -46 -43 -125 -89 -167 -24 -22 -47 -35 -51 -30 -5 4 -19 35 -32 67 -13 33 -29 61 -36 64 -16 5 -16 -65 1 -71 6 -3 0 -6 -16 -6 l -27 -1 15 -36 c 21 -51 19 -64 -10 -64 -14 0 -25 -5 -25 -11 0 -16 56 -6 115 22 93 44 175 156 175 240 0 34 -2 37 -37 43 -67 11 -83 8 -83 -14 z  m -74 -235 c -8 -8 -17 -15 -20 -15 -3 0 -6 7 -6 15 0 9 9 15 21 15 18 0 19 -2 5 -15 z "
         style="fill:none" />
      <path
         id="pHMGHqDsR"
         d="M 20 405 c 0 -19 5 -35 10 -35 6 0 10 16 10 35 0 19 -4 35 -10 35 -5 0 -10 -16 -10 -35 z "
         style="fill:none" />
      <path
         id="pntpekOzM"
         d="M 113 414 c -15 -16 -17 -74 -3 -74 6 0 10 -11 10 -24 0 -37 10 -56 31 -56 14 0 19 -7 19 -30 0 -23 4 -30 20 -30 13 0 20 -7 20 -20 0 -17 7 -20 42 -20 l 42 0 -35 25 c -60 45 -104 115 -123 196 -9 38 -13 44 -23 33 z "
         style="fill:none" />
      <path
         id="peCKgR8HL"
         d="M 881 423 c 0 -7 -7 -13 -15 -13 -8 0 -18 -22 -27 -60 -7 -33 -17 -60 -21 -60 -4 0 -8 -11 -8 -25 0 -16 -6 -25 -15 -25 -9 0 -15 -9 -15 -25 0 -18 -5 -25 -18 -25 -22 0 -47 -25 -56 -57 -6 -17 -15 -23 -37 -23 -19 0 -29 -5 -29 -15 0 -10 -10 -15 -29 -15 -16 0 -31 -5 -33 -11 -4 -13 -155 -17 -258 -6 -71 7 -73 7 -48 -8 15 -8 53 -22 85 -29 32 -8 48 -15 36 -15 -11 -1 -49 8 -82 18 l -61 19 0 -23 0 -23 205 0 c 194 0 205 1 205 19 0 15 7 19 40 19 22 0 40 5 40 10 0 6 7 10 15 10 8 0 15 6 15 13 1 18 47 67 65 67 8 0 15 7 15 15 0 8 4 15 9 15 5 0 11 18 15 40 4 26 11 40 21 40 12 0 15 16 14 83 -1 69 -2 76 -9 42 -39 -195 -183 -337 -363 -360 -32 -4 -26 -1 23 12 112 31 206 99 264 192 34 52 68 157 63 190 -2 14 -5 20 -6 14 z "
         style="fill:none" />
      <path
         id="pUdroe2Mf"
         d="M 768 352 c -33 -112 -140 -208 -255 -227 -30 -5 -40 -10 -36 -21 6 -16 73 -20 73 -4 0 6 13 10 30 10 46 0 80 20 80 47 0 12 5 23 11 23 6 0 17 7 25 15 9 8 24 15 35 15 16 0 19 7 19 40 0 22 4 40 10 40 12 0 33 70 28 99 -2 15 -8 4 -20 -37 z "
         style="fill:none" />
      <path
         id="pR3mv5beT"
         d="M 0 306 c 0 -46 3 -56 20 -61 15 -5 20 -15 20 -41 0 -19 5 -34 10 -34 6 0 10 -7 10 -15 0 -8 14 -17 34 -20 29 -6 35 -12 41 -41 3 -20 12 -34 20 -34 8 0 15 -4 15 -10 0 -5 16 -10 35 -10 43 0 44 10 5 33 -80 48 -155 144 -180 231 -18 66 -30 66 -30 2 z "
         style="fill:none" />
      <path
         id="p28kONgaU"
         d="M 30 346 c 0 -57 95 -198 165 -246 42 -29 45 -30 45 -10 0 11 -6 20 -14 20 -8 0 -16 10 -18 23 -2 14 -11 23 -25 25 -14 2 -23 10 -23 22 0 11 -10 20 -25 24 -20 5 -25 13 -25 36 0 17 -4 30 -10 30 -5 0 -10 9 -10 20 0 11 -4 20 -10 20 -5 0 -10 11 -10 25 0 18 -5 25 -20 25 -11 0 -20 -6 -20 -14 z "
         style="fill:none" />
      <path
         id="p6mXDGSRg"
         d="M 326 135 c 4 -8 12 -15 20 -15 8 0 14 -7 14 -15 0 -10 11 -15 35 -15 49 0 47 27 -2 36 -21 4 -46 11 -55 16 -14 6 -16 5 -12 -7 z "
         style="fill:none" />
    </g>
  </g>
  <g
     id="l1xBDZCPSSLRvuUlYW3ZqiH"
     fill="rgb(135,131,173)"
     style="transform: none;">
    <g
       style="transform: none;"
       id="g6">
      <path
         id="p1Cg3nTraB"
         d="M 560 896 c 30 -7 69 -20 87 -29 41 -22 43 -22 43 7 0 31 -16 36 -108 35 l -77 -1 55 -12 z " />
      <path
         id="pblLgymrv"
         d="M 280 892 c 0 -4 16 -6 35 -4 19 2 35 6 35 8 0 2 -16 4 -35 4 -19 0 -35 -4 -35 -8 z " />
      <path
         id="p9QKjwofX"
         d="M 398 883 c -10 -2 -18 -11 -18 -19 0 -11 17 -14 73 -16 93 -3 145 -6 182 -13 26 -4 24 -2 -12 15 -67 32 -171 47 -225 33 z " />
      <path
         id="p9wChKXVQ"
         d="M 170 860 c 0 -5 -7 -10 -15 -10 -10 0 -15 -10 -15 -30 l 0 -30 50 32 c 27 18 50 36 50 41 0 4 -16 7 -35 7 -19 0 -35 -4 -35 -10 z " />
      <path
         id="p1DjsIfFPP"
         d="M 298 859 c -29 -16 -21 -29 17 -29 28 0 35 4 35 20 0 22 -24 26 -52 9 z " />
      <path
         id="p17THncqEm"
         d="M 187 795 c -53 -40 -100 -99 -128 -163 -23 -52 -23 -52 -4 -52 8 0 15 7 15 15 0 8 6 15 14 15 16 0 26 21 26 56 0 17 6 24 20 24 16 0 20 7 20 30 0 27 3 30 30 30 25 0 30 4 30 25 0 16 6 25 15 25 8 0 15 7 15 15 0 19 3 20 -53 -20 z " />
      <path
         id="p13VAHuWPM"
         d="M 766 778 c 68 -71 107 -135 126 -206 l 18 -67 -3 59 c -2 33 -9 62 -15 64 -7 2 -12 15 -12 28 0 15 -6 24 -15 24 -11 0 -15 11 -15 38 0 29 -5 39 -22 47 -13 6 -24 20 -26 33 -3 18 -10 22 -40 22 l -36 0 40 -42 z " />
      <path
         id="p4cOtcG78"
         d="M 343 798 c -24 -5 -43 -13 -43 -19 0 -5 -9 -9 -20 -9 -15 0 -20 -7 -20 -25 0 -30 1 -30 47 -5 20 10 60 24 90 30 34 7 53 16 53 26 0 16 -41 17 -107 2 z " />
      <path
         id="p15QpEhYFg"
         d="M 460 796 c 0 -9 19 -18 53 -26 28 -6 71 -20 94 -31 57 -28 137 -117 157 -175 24 -71 21 -177 -8 -246 -16 -39 -19 -55 -10 -51 8 3 14 11 14 19 0 8 8 14 19 14 23 0 29 21 38 123 5 67 4 77 -10 77 -13 0 -15 8 -10 50 5 42 3 50 -11 50 -11 0 -16 9 -16 30 0 23 -4 30 -20 30 -14 0 -20 7 -20 23 0 28 -17 47 -42 47 -10 0 -18 7 -18 15 0 10 -10 15 -30 15 -19 0 -30 5 -30 14 0 9 -19 18 -50 25 -69 15 -100 14 -100 -3 z " />
      <path
         id="pi8ES8u1B"
         d="M 710 772 c 0 -29 35 -72 58 -72 7 0 12 -9 12 -20 0 -11 7 -20 15 -20 9 0 15 -9 15 -25 0 -14 4 -25 9 -25 5 0 11 -18 15 -40 5 -32 10 -40 27 -40 19 0 21 4 15 31 -14 69 -84 182 -137 220 l -29 20 0 -29 z " />
      <path
         id="pPWeJaA54"
         d="M 70 744 c 0 -39 9 -38 40 6 l 21 30 -30 0 c -29 0 -31 -3 -31 -36 z " />
      <path
         id="po8oum7kd"
         d="M 347 731 c -71 -29 -129 -81 -162 -147 -25 -49 -29 -70 -29 -134 -1 -80 26 -161 65 -196 18 -16 19 -16 19 14 0 29 3 32 30 32 25 0 30 4 30 25 0 21 5 25 30 25 27 0 30 3 30 30 0 20 5 30 15 30 9 0 15 -9 15 -25 0 -27 18 -33 38 -13 9 9 15 4 26 -23 8 -19 21 -51 29 -71 19 -45 34 -49 40 -10 l 4 27 2 -27 c 1 -23 6 -28 26 -28 27 0 28 -9 -14 99 -23 58 -22 81 5 81 12 0 15 6 10 23 -3 12 -6 28 -6 35 0 6 -9 12 -20 12 -11 0 -20 6 -20 13 1 20 48 198 55 205 10 10 74 -30 107 -67 42 -47 73 -120 59 -134 -16 -16 -14 -37 4 -37 25 0 17 -30 -7 -31 l -23 0 22 -9 c 20 -8 21 -12 11 -47 -16 -60 -37 -94 -86 -145 -26 -27 -41 -48 -36 -48 6 0 29 19 52 42 146 147 112 384 -69 483 -71 38 -180 45 -252 16 z  m 133 -13 c 0 -13 -9 -57 -20 -98 -26 -98 -25 -104 10 -117 16 -6 35 -23 41 -37 27 -58 -54 -103 -101 -56 -25 25 -25 41 0 73 l 20 25 -48 31 c -59 37 -62 38 -62 6 0 -16 6 -25 15 -25 8 0 15 -4 15 -10 0 -5 9 -10 20 -10 11 0 20 -4 20 -10 0 -5 -10 -10 -22 -10 -20 0 -20 -1 -5 -18 10 -10 17 -21 17 -24 0 -10 -157 -138 -168 -138 -20 0 -43 84 -43 152 0 75 14 113 38 104 12 -5 14 -1 11 19 -5 22 -2 25 26 25 28 1 29 2 14 14 -26 19 -22 32 18 62 42 32 125 63 172 64 27 0 32 -4 32 -22 z " />
      <path
         id="p1GGhQ0CHQ"
         d="M 423 464 c -8 -21 8 -48 32 -52 11 -3 15 0 11 7 -11 17 5 36 16 20 6 -10 8 -7 6 11 -2 19 -10 26 -31 28 -18 2 -29 -2 -34 -14 z " />
      <path
         id="pEElSUOVy"
         d="M 220 694 c 0 -14 3 -14 15 -4 8 7 15 14 15 16 0 2 -7 4 -15 4 -8 0 -15 -7 -15 -16 z " />
      <path
         id="pwFLl7ryf"
         d="M 40 690 c 0 -5 -6 -10 -14 -10 -15 0 -26 -30 -26 -72 0 -48 24 -31 46 32 16 47 18 60 8 60 -8 0 -14 -4 -14 -10 z " />
      <path
         id="pODyygtFB"
         d="M 180 654 c 0 -14 3 -14 15 -4 8 7 15 14 15 16 0 2 -7 4 -15 4 -8 0 -15 -7 -15 -16 z " />
      <path
         id="ps2r5u6fd"
         d="M 129 593 c -25 -6 -43 -103 -19 -103 5 0 11 -28 13 -62 l 3 -63 2 71 c 1 39 9 91 17 114 20 56 21 53 -16 43 z " />
      <path
         id="pPcEjFcAI"
         d="M 24 525 c -7 -41 -4 -48 20 -39 10 4 16 18 16 40 0 47 -27 46 -36 -1 z " />
      <path
         id="p5GbLOVUS"
         d="M 578 493 c -31 -8 -21 -33 12 -33 23 0 30 -4 30 -20 0 -21 16 -25 58 -14 30 9 28 34 -3 34 -18 0 -25 5 -25 20 0 15 -6 20 -27 19 -16 -1 -36 -3 -45 -6 z " />
      <path
         id="p13Hm3W7qe"
         d="M 20 409 c 0 -44 22 -109 38 -109 12 0 14 9 9 50 -7 61 -47 111 -47 59 z " />
      <path
         id="pX6kxFbwl"
         d="M 851 388 c 1 -18 4 -44 8 -58 6 -23 8 -20 19 22 16 63 15 68 -8 68 -16 0 -20 -6 -19 -32 z " />
      <path
         id="pxUWpyjaY"
         d="M 1 353 c -1 -40 3 -53 13 -53 11 0 13 7 6 33 -5 17 -11 41 -13 52 -3 11 -5 -4 -6 -32 z " />
      <path
         id="pvRoQCCE8"
         d="M 897 361 c -4 -24 -5 -46 -2 -49 11 -11 16 8 13 49 l -3 44 -8 -44 z " />
      <path
         id="pe3pcKvaY"
         d="M 140 275 c 0 -19 5 -35 10 -35 6 0 10 -7 10 -15 0 -10 10 -15 30 -15 l 30 0 -32 50 c -18 27 -36 50 -40 50 -5 0 -8 -16 -8 -35 z " />
      <path
         id="puhm9bnpn"
         d="M 57 273 c 26 -70 114 -164 194 -208 70 -38 183 -56 268 -43 70 10 178 57 207 89 16 18 16 19 -19 19 -26 0 -37 -4 -37 -15 0 -9 -9 -15 -24 -15 -14 0 -31 -7 -40 -15 -8 -8 -24 -15 -34 -15 -11 0 -22 -5 -24 -11 -5 -15 -167 -18 -182 -4 -6 6 -36 21 -66 35 -30 14 -56 28 -58 33 -2 4 -15 7 -28 7 -16 0 -24 6 -24 18 0 23 -19 42 -42 42 -13 0 -18 8 -18 25 0 16 -6 25 -15 25 -9 0 -15 9 -15 25 0 20 -5 25 -25 25 -19 0 -23 -4 -18 -17 z " />
      <path
         id="pfJpCPm91"
         d="M 30 253 c 0 -23 5 -33 15 -33 9 0 15 -9 15 -25 0 -16 6 -25 15 -25 19 0 20 -2 -15 61 -29 53 -30 53 -30 22 z " />
      <path
         id="ppicBAe1L"
         d="M 660 190 l -45 -39 35 -1 c 33 0 37 3 47 40 5 22 10 40 9 40 -1 0 -21 -18 -46 -40 z " />
      <path
         id="pZK1b5IGK"
         d="M 518 185 c 4 -24 3 -25 -56 -25 -34 0 -82 7 -108 16 -25 8 -48 13 -51 11 -8 -9 107 -47 143 -47 44 0 124 20 124 30 0 23 -15 40 -35 40 -18 0 -21 -4 -17 -25 z " />
      <path
         id="p2vpjXfYp"
         d="M 270 146 c 0 -31 14 -35 110 -35 l 75 1 -55 12 c -30 7 -69 20 -87 29 -41 22 -43 22 -43 -7 z " />
      <path
         id="pVfim5abP"
         d="M 100 143 c 0 -25 23 -46 45 -41 13 2 10 9 -14 32 -29 27 -31 28 -31 9 z " />
      <path
         id="p9XXihpcv"
         d="M 510 123 l -55 -13 54 5 c 49 4 71 11 60 18 -2 1 -29 -3 -59 -10 z " />
      <path
         id="p1DzAkm1OP"
         d="M 170 76 c 0 -9 7 -16 15 -16 8 0 15 -4 15 -9 0 -18 99 -51 152 -50 l 53 1 -57 14 c -32 7 -81 26 -110 41 -29 15 -56 29 -60 31 -5 2 -8 -3 -8 -12 z " />
      <path
         id="phDPO7nXc"
         d="M 680 62 c -25 -15 -74 -34 -110 -44 l -65 -17 58 0 c 32 -1 57 3 57 9 0 6 9 10 19 10 30 0 51 11 51 26 0 8 10 14 25 14 16 0 25 6 25 15 0 20 -6 18 -60 -13 z " />
    </g>
  </g>
  <g
     id="lPFEnvAG0zD5Bb6FDZZL7F"
     fill="rgb(151,151,170)"
     style="transform: none;">
    <g
       style="transform: none;"
       id="g7">
      <path
         id="p16IKjgilv"
         d="M 320 900 c 0 -11 14 -11 50 0 22 7 21 8 -12 9 -21 1 -38 -3 -38 -9 z " />
      <path
         id="pdPka0CMs"
         d="M 590 891 c 20 -4 41 -11 48 -15 7 -4 12 -3 12 2 0 12 -36 22 -70 21 -19 -1 -16 -3 10 -8 z " />
      <path
         id="pE60fk67W"
         d="M 418 883 c -10 -2 -18 -11 -18 -19 0 -11 15 -14 60 -14 44 0 60 4 60 14 0 21 -55 32 -102 19 z " />
      <path
         id="pKqKTQUfb"
         d="M 298 856 c -73 -30 -149 -86 -187 -138 -37 -51 -38 -58 -6 -58 18 0 25 5 25 20 0 11 6 20 13 20 16 0 57 42 57 58 0 7 9 12 20 12 11 0 20 5 20 10 0 6 7 10 15 10 8 0 15 7 15 15 0 10 10 15 30 15 17 0 30 5 30 10 0 6 14 10 30 10 23 0 30 4 30 20 0 26 -21 25 -92 -4 z " />
      <path
         id="p17iH937l8"
         d="M 550 851 c 0 -19 25 -31 68 -31 13 0 22 -6 22 -15 0 -8 7 -15 15 -15 8 0 15 -4 15 -10 0 -5 16 -10 37 -10 35 0 36 0 18 20 -22 24 -131 80 -157 80 -11 0 -18 -7 -18 -19 z " />
      <path
         id="p09Dk1hqK"
         d="M 200 850 c 0 -5 -7 -10 -15 -10 -8 0 -15 -4 -15 -10 0 -14 5 -13 42 10 29 18 30 20 11 20 -13 0 -23 -4 -23 -10 z " />
      <path
         id="pSGgbmVeo"
         d="M 671 857 c 46 -36 69 -47 69 -33 0 9 -7 16 -15 16 -8 0 -15 5 -15 10 0 6 -10 10 -22 10 -12 0 -19 -1 -17 -3 z " />
      <path
         id="pfel6AQLz"
         d="M 112 787 c -12 -13 -22 -31 -22 -40 0 -9 -7 -17 -15 -17 -9 0 -15 -9 -14 -22 0 -23 0 -23 17 2 9 14 32 42 51 62 36 42 21 55 -17 15 z " />
      <path
         id="pWRTTEPHT"
         d="M 370 790 c 0 -21 10 -24 48 -14 36 10 27 34 -13 34 -28 0 -35 -4 -35 -20 z " />
      <path
         id="pMkomnz7Z"
         d="M 470 796 c 0 -13 29 -26 62 -26 11 0 15 6 11 20 -4 15 -14 20 -39 20 -22 0 -34 -5 -34 -14 z " />
      <path
         id="pBnnskf1O"
         d="M 288 763 c -34 -3 -48 -8 -48 -19 0 -7 -8 -14 -18 -14 -26 0 -52 -32 -52 -63 0 -20 -5 -27 -19 -27 -21 0 -31 -19 -31 -61 0 -43 16 -36 44 19 29 57 101 126 159 153 23 10 35 18 27 17 -8 -1 -36 -3 -62 -5 z " />
      <path
         id="p1BZjzsxxK"
         d="M 613 740 c 21 -12 56 -40 78 -63 115 -118 126 -289 27 -429 l -19 -28 30 0 c 17 0 31 5 31 11 0 6 7 17 16 26 9 9 15 31 14 52 -3 55 -1 61 15 61 12 0 15 14 15 69 0 96 -8 131 -31 131 -18 0 -35 41 -41 100 -2 17 -10 26 -25 28 -14 2 -23 10 -23 22 0 13 -10 19 -37 23 -21 3 -49 8 -63 11 -17 5 -12 0 13 -14 z " />
      <path
         id="pcK66vLI2"
         d="M 445 741 c 37 -5 40 -8 37 -33 -3 -22 1 -28 17 -28 11 0 22 8 24 18 4 16 5 16 6 0 1 -24 13 -23 29 2 10 17 16 19 33 9 41 -21 101 -83 125 -128 14 -25 22 -35 18 -21 -28 103 -158 192 -278 189 -51 -2 -51 -2 -11 -8 z " />
      <path
         id="pFUoiJH1B"
         d="M 323 719 c -85 -42 -150 -126 -158 -207 -4 -36 -4 -35 6 6 6 23 16 42 23 42 6 0 52 -25 101 -56 l 88 -55 24 30 c 14 17 31 31 40 31 10 0 14 6 10 20 -4 15 0 20 14 20 15 0 19 7 19 35 0 46 -26 47 -35 3 -16 -70 -23 -80 -47 -67 -16 9 -23 9 -26 0 -5 -14 -52 -15 -52 -1 0 6 9 10 20 10 34 0 22 14 -50 59 -59 36 -69 46 -58 58 21 26 93 71 129 81 20 6 26 11 14 11 -11 1 -39 -8 -62 -20 z " />
      <path
         id="pl36ErQNS"
         d="M 6 608 c -3 -13 -5 -39 -5 -58 1 -32 1 -33 9 -10 27 81 29 90 15 90 -7 0 -15 -10 -19 -22 z " />
      <path
         id="pxV5vjopS"
         d="M 46 598 c -8 -18 -17 -52 -21 -75 -6 -38 -4 -43 12 -43 14 0 21 12 31 53 15 65 15 97 1 97 -5 0 -16 -15 -23 -32 z " />
      <path
         id="p11kzT3ssP"
         d="M 850 515 c 0 -28 4 -35 20 -35 21 0 24 10 14 48 -10 36 -34 27 -34 -13 z " />
      <path
         id="pWntZgWwr"
         d="M 470 524 c 0 -4 11 -17 25 -30 30 -27 32 -53 7 -84 -25 -31 -71 -30 -96 3 l -19 25 -81 -69 c -44 -38 -86 -69 -93 -69 -16 0 -32 31 -43 83 -6 35 -8 37 -9 12 -2 -82 100 -206 189 -229 14 -4 4 4 -21 18 -79 43 -79 44 18 124 48 39 91 68 95 64 4 -4 25 -51 47 -105 l 40 -98 -27 -10 c -15 -6 -49 -8 -77 -5 -47 5 -48 4 -15 -6 41 -12 134 3 189 32 89 46 161 163 160 260 0 30 -4 64 -8 74 -7 18 -8 18 -14 3 -3 -9 -13 -17 -22 -17 -8 0 -15 -7 -15 -15 0 -8 4 -15 9 -15 5 0 7 -8 4 -19 -3 -13 2 -20 17 -24 24 -6 21 -30 -10 -103 -20 -47 -95 -127 -113 -121 -15 4 -86 164 -86 195 -1 13 5 22 14 22 16 0 18 12 9 48 -4 12 -13 22 -20 22 -8 0 -14 9 -14 20 0 13 -7 20 -20 20 -11 0 -20 -3 -20 -6 z  m -90 -144 c 0 -11 -7 -20 -15 -20 -8 0 -15 9 -15 20 0 11 7 20 15 20 8 0 15 -9 15 -20 z  m -60 -55 c 0 -8 -7 -15 -15 -15 -8 0 -15 7 -15 15 0 8 7 15 15 15 8 0 15 -7 15 -15 z " />
      <path
         id="p1AEZrlSh8"
         d="M 93 428 c 8 -105 15 -128 37 -128 10 0 22 -9 25 -20 3 -11 10 -20 15 -20 4 0 -3 26 -16 58 -17 40 -24 77 -24 125 0 62 -2 67 -21 67 -21 0 -22 -3 -16 -82 z " />
      <path
         id="p6RbypCHa"
         d="M 607 493 c -15 -4 -17 -11 -11 -36 8 -41 7 -41 50 -33 31 6 35 10 30 29 -3 12 -6 28 -6 35 0 12 -28 14 -63 5 z " />
      <path
         id="pflJsq1xe"
         d="M488.5170668494912 445.7447964605399 C 488.5170668494912 463.8144427735192 473.8687242654231 478.4627853575873 455.7990779524438 478.4627853575873 437.7294316394645 478.4627853575873 423.0810890553963 463.8144427735192 423.0810890553963 445.7447964605399 423.0810890553963 427.6751501475605 437.7294316394645 413.0268075634924 455.7990779524438 413.0268075634924 473.8687242654231 413.0268075634924 488.5170668494912 427.6751501475605 488.5170668494912 445.7447964605399 Z M431.0 466.0 " />
      <path
         id="p18kjTAkC8"
         d="M 845 375 c -4 -30 -11 -55 -16 -55 -5 0 -9 -13 -9 -30 0 -20 -5 -30 -15 -30 -8 0 -15 -6 -15 -14 0 -8 -5 -16 -11 -18 -6 -2 -9 -19 -7 -38 l 3 -35 32 44 c 36 48 67 124 78 189 6 38 5 42 -13 42 -17 0 -22 -9 -27 -55 z " />
      <path
         id="pqrOBuFE3"
         d="M 20 408 c 0 -30 13 -58 26 -58 9 0 14 12 14 35 0 28 -4 35 -20 35 -11 0 -20 -6 -20 -12 z " />
      <path
         id="pYpYn8VAG"
         d="M 902 373 c -1 -13 -11 -45 -21 -73 -15 -41 -16 -50 -5 -50 9 0 14 11 14 29 0 16 5 31 11 33 6 2 9 20 6 43 -2 22 -4 30 -5 18 z " />
      <path
         id="piVtrbbT0"
         d="M 10 307 c 0 -26 4 -37 14 -37 12 0 13 6 4 33 -15 45 -18 46 -18 4 z " />
      <path
         id="p9EmKSX8Z"
         d="M 40 324 c 0 -21 18 -54 30 -54 6 0 10 16 10 35 0 28 -4 35 -20 35 -11 0 -20 -7 -20 -16 z " />
      <path
         id="p14HPjlUDr"
         d="M 832 200 c -18 -33 -20 -40 -7 -40 8 0 15 6 15 14 0 8 5 16 11 18 6 2 9 14 7 26 -3 19 -6 17 -26 -18 z " />
      <path
         id="pNuQbzJcg"
         d="M 100 200 c 31 -44 40 -45 40 -6 0 33 -2 36 -31 36 l -30 0 21 -30 z " />
      <path
         id="ptrzz8MKP"
         d="M 220 180 c 0 -20 5 -30 15 -30 8 0 15 -4 15 -10 0 -5 14 -10 30 -10 19 0 30 -5 30 -14 0 -7 14 -16 31 -20 46 -9 79 -7 79 4 0 6 16 10 35 10 19 0 35 -4 35 -10 0 -11 33 -13 79 -4 24 5 31 12 31 29 0 23 -1 23 -47 9 -97 -29 -203 -13 -287 45 l -46 32 0 -31 z " />
      <path
         id="pdgZOqPYD"
         d="M 70 180 c 0 -11 7 -20 15 -20 13 0 14 4 5 20 -6 11 -13 20 -15 20 -3 0 -5 -9 -5 -20 z " />
      <path
         id="pkKYoJZR7"
         d="M 643 176 c -42 -27 -41 -36 1 -36 31 0 35 -3 38 -30 l 3 -31 35 30 35 30 -37 1 c -33 0 -37 3 -40 29 l -3 28 -32 -21 z " />
      <path
         id="pJAVRxG5l"
         d="M 724 85 c -19 -14 -18 -14 4 -15 13 0 22 6 22 15 0 19 -1 19 -26 0 z " />
      <path
         id="pBAJZ2gAw"
         d="M 538 67 c -27 -8 -38 -16 -38 -30 0 -17 5 -18 38 -12 51 9 102 32 102 44 0 13 -52 12 -102 -2 z " />
      <path
         id="pcuJtnJe0"
         d="M 340 46 c 0 -13 28 -26 58 -26 6 0 12 9 12 20 0 16 -7 20 -35 20 -23 0 -35 -5 -35 -14 z " />
      <path
         id="piJDfqxUA"
         d="M 629 36 c -3 -3 -30 -12 -60 -21 l -54 -15 57 3 c 61 4 72 9 66 27 -2 6 -6 9 -9 6 z " />
    </g>
  </g>
  <g
     id="l1RC0SfH8VcgYUs54CVttGS"
     fill="rgb(173,174,178)"
     style="transform:none;fill:none">
    <g
       style="transform:none;fill:none"
       id="g8">
      <path
         id="pahX76GQ8"
         d="M 310 900 c -24 -8 -24 -8 5 -8 17 0 41 4 55 8 24 8 24 8 -5 8 -16 0 -41 -4 -55 -8 z "
         style="fill:none" />
      <path
         id="pcO4IWQKZ"
         d="M 521 906 c 12 -10 59 -15 59 -6 0 5 -14 10 -32 10 -17 0 -29 -2 -27 -4 z "
         style="fill:none" />
      <path
         id="p1FgIqyJBf"
         d="M 648 870 c 37 -22 42 -24 42 -11 0 5 -14 14 -31 20 -46 16 -48 14 -11 -9 z "
         style="fill:none" />
      <path
         id="p1DDgFGNxb"
         d="M 230 870 c -26 -16 -3 -22 27 -6 23 13 24 15 8 15 -11 1 -27 -3 -35 -9 z "
         style="fill:none" />
      <path
         id="poxXijSY0"
         d="M 315 861 c -56 -20 -95 -42 -95 -53 0 -14 68 -9 82 6 8 7 33 17 56 21 32 5 42 11 42 26 0 24 -20 24 -85 0 z "
         style="fill:none" />
      <path
         id="plAbljbbV"
         d="M 510 860 c 0 -16 7 -20 30 -20 17 0 30 -4 30 -8 0 -11 61 -32 93 -32 55 0 20 30 -71 61 -70 24 -82 24 -82 -1 z "
         style="fill:none" />
      <path
         id="pygjSdzvL"
         d="M 318 794 c -36 -11 -48 -20 -48 -34 0 -16 -7 -20 -30 -20 -25 0 -30 -4 -30 -25 0 -20 -5 -25 -25 -25 -16 0 -25 -6 -25 -15 0 -8 -4 -15 -10 -15 -5 0 -10 -13 -10 -30 0 -19 -5 -30 -14 -30 -23 0 -39 -93 -33 -189 3 -48 10 -87 16 -89 6 -2 11 -14 11 -27 0 -13 7 -30 15 -39 8 -8 15 -19 15 -25 0 -6 14 -11 31 -11 l 30 0 -21 30 c -59 83 -79 183 -55 275 32 122 117 209 238 242 33 10 57 22 57 30 0 17 -51 16 -112 -3 z "
         style="fill:none" />
      <path
         id="peUqTHwzF"
         d="M 480 797 c 0 -8 24 -20 58 -30 32 -9 81 -31 108 -49 60 -40 109 -112 131 -190 10 -37 22 -58 31 -58 12 0 14 10 9 52 -4 29 -11 54 -17 56 -5 2 -10 14 -10 27 0 13 -7 30 -15 39 -8 8 -15 19 -15 25 0 6 -13 11 -29 11 -29 0 -41 14 -41 51 0 10 -5 19 -11 19 -6 0 -17 7 -25 15 -18 17 -106 45 -146 45 -17 0 -28 -5 -28 -13 z "
         style="fill:none" />
      <path
         id="p15SeaXvp6"
         d="M 477 678 c -21 -89 -21 -85 1 -91 14 -4 13 -5 -4 -6 -27 -1 -52 -71 -26 -71 10 0 26 -3 37 -6 19 -5 23 4 44 93 13 54 27 106 32 115 9 17 8 18 -52 34 -12 3 -19 -12 -32 -68 z "
         style="fill:none" />
      <path
         id="p7AWM0Fys"
         d="M 70 726 c 0 -8 -5 -16 -11 -18 -6 -2 -10 -11 -8 -21 3 -12 10 -8 27 18 18 28 19 35 7 35 -8 0 -15 -6 -15 -14 z "
         style="fill:none" />
      <path
         id="pxa4wxIy9"
         d="M 103 701 c -36 -48 -67 -124 -78 -188 -6 -39 -5 -43 13 -43 17 0 22 9 27 55 4 30 11 55 16 55 5 0 9 14 9 30 0 20 5 30 15 30 8 0 15 6 15 14 0 8 5 16 11 18 6 2 9 19 7 38 l -3 35 -32 -44 z "
         style="fill:none" />
      <path
         id="pKbAvnGEA"
         d="M 770 707 c 0 -19 4 -37 8 -39 4 -1 21 -32 37 -68 23 -51 30 -83 33 -147 3 -59 8 -83 17 -83 28 0 33 95 10 185 -17 65 -58 145 -86 171 -18 16 -19 16 -19 -19 z "
         style="fill:none" />
      <path
         id="pH2SLCBAd"
         d="M 829 708 c 41 -66 52 -89 65 -140 14 -49 15 -50 15 -18 1 38 -42 153 -59 158 -5 2 -10 10 -10 18 0 8 -7 14 -16 14 -14 0 -13 -5 5 -32 z "
         style="fill:none" />
      <path
         id="p101sPuOXw"
         d="M 639 677 c 26 -28 31 -32 31 -19 0 4 -13 16 -28 26 l -27 19 24 -26 z "
         style="fill:none" />
      <path
         id="p9C04zdc1"
         d="M 20 620 c 0 -16 -4 -30 -10 -30 -5 0 -10 -17 -9 -37 l 0 -38 19 55 c 22 64 24 80 10 80 -5 0 -10 -13 -10 -30 z "
         style="fill:none" />
      <path
         id="pt48Kcl6k"
         d="M 185 580 c -17 -33 -20 -55 -4 -27 10 17 12 17 43 -3 41 -24 46 -25 46 -2 0 11 3 13 8 6 4 -7 18 -14 32 -17 25 -4 25 -4 -2 -6 -36 -1 -35 -12 1 -34 36 -21 41 -21 42 1 0 10 7 3 16 -17 15 -36 17 -35 44 11 8 15 -2 25 -62 64 -90 58 -99 61 -99 38 0 -11 -3 -15 -8 -8 -17 26 -42 23 -57 -6 z "
         style="fill:none" />
      <path
         id="p1H8Crub1C"
         d="M 733 503 c -18 -7 -17 -73 1 -73 8 0 17 -6 19 -12 3 -7 6 5 6 27 1 45 -8 64 -26 58 z "
         style="fill:none" />
      <path
         id="p3yP09QOs"
         d="M 628 493 c -10 -2 -18 -11 -18 -19 0 -8 -9 -14 -20 -14 -13 0 -20 -7 -20 -20 0 -14 7 -20 23 -20 38 0 67 12 67 26 0 8 9 14 20 14 13 0 20 7 20 20 0 15 -6 20 -27 19 -16 -1 -36 -3 -45 -6 z "
         style="fill:none" />
      <path
         id="pyRyHEger"
         d="M 517 457 c 4 -28 1 -37 -21 -55 -15 -11 -32 -23 -39 -25 -9 -3 -9 -8 1 -18 9 -9 12 -10 12 -1 0 7 12 12 26 12 21 0 24 3 19 21 -5 15 -2 22 14 26 29 8 31 73 2 73 -17 0 -19 -5 -14 -33 z "
         style="fill:none" />
      <path
         id="ptVbO8utB"
         d="M487.8584333633596 446.6870598414367 C 487.8584333633596 464.7683638828361 473.2006403231679 479.4261569230277 455.1193362817686 479.4261569230277 437.0380322403693 479.4261569230277 422.3802392001776 464.7683638828361 422.3802392001776 446.6870598414367 422.3802392001776 428.6057558000374 437.0380322403693 413.9479627598457 455.1193362817686 413.9479627598457 473.2006403231679 413.9479627598457 487.8584333633596 428.6057558000374 487.8584333633596 446.6870598414367 Z M432.0 468.0 "
         style="fill:none" />
      <path
         id="pd9EsPD9B"
         d="M 25 388 c 11 -63 44 -145 71 -176 l 23 -27 1 37 c 0 20 -7 43 -15 52 -8 8 -15 22 -15 30 0 9 -4 16 -9 16 -5 0 -12 25 -16 55 -5 46 -10 55 -27 55 -18 0 -19 -4 -13 -42 z "
         style="fill:none" />
      <path
         id="p16kYXEJpu"
         d="M 360 414 c -8 -8 -46 -42 -87 -74 l -73 -59 26 -31 c 25 -29 27 -30 39 -13 7 10 48 47 92 82 l 79 64 -23 23 c -28 28 -36 29 -53 8 z  m -32 -91 c -10 -2 -26 -2 -35 0 -10 3 -2 5 17 5 19 0 27 -2 18 -5 z "
         style="fill:none" />
      <path
         id="p14dlxO34x"
         d="M 772 357 c -25 -88 -86 -163 -166 -205 -46 -24 -61 -27 -159 -27 -93 0 -107 -2 -107 -17 0 -13 13 -18 56 -24 64 -8 167 2 172 16 2 6 14 10 27 10 38 0 55 11 55 35 0 20 6 24 38 27 32 3 37 7 40 31 2 19 9 27 23 27 14 0 19 7 19 30 0 19 5 30 14 30 8 0 18 19 25 44 28 114 -4 134 -37 23 z "
         style="fill:none" />
      <path
         id="p13YXqLrgO"
         d="M 1 353 c -1 -24 4 -43 9 -43 6 0 10 -13 10 -30 0 -16 4 -30 9 -30 5 0 11 -13 15 -30 3 -18 12 -30 21 -30 12 0 11 9 -10 50 -14 28 -32 74 -40 103 l -14 52 0 -42 z "
         style="fill:none" />
      <path
         id="pMdEYUba3"
         d="M 510 337 c 0 -9 -9 -17 -19 -19 -18 -3 -17 -7 9 -73 15 -38 26 -73 23 -77 -2 -5 3 -8 12 -8 26 0 78 25 114 56 35 29 91 109 91 128 0 6 -13 -12 -30 -40 -29 -52 -81 -104 -104 -104 -7 0 -26 32 -42 72 -28 67 -54 98 -54 65 z "
         style="fill:none" />
      <path
         id="pVk5snEm1"
         d="M 830 329 c 0 -11 -7 -27 -15 -35 -16 -17 -21 -84 -6 -84 11 0 61 102 61 124 0 9 -9 16 -20 16 -14 0 -20 -7 -20 -21 z "
         style="fill:none" />
      <path
         id="pDXhmbiLM"
         d="M 891 330 c 0 -8 -12 -39 -26 -67 -18 -39 -21 -53 -11 -53 15 0 26 21 26 50 0 10 5 20 11 22 6 2 9 17 6 33 -2 17 -5 23 -6 15 z "
         style="fill:none" />
      <path
         id="p1BgmWMHWX"
         d="M 227 176 c 8 -40 5 -38 50 -34 l 38 3 -47 31 -47 32 6 -32 z "
         style="fill:none" />
      <path
         id="pquHT9nsC"
         d="M 175 120 c 26 -29 151 -87 203 -95 37 -6 42 -4 42 12 0 18 -43 35 -127 50 -19 3 -33 11 -33 19 0 8 -7 14 -15 14 -8 0 -15 5 -15 10 0 6 -16 10 -37 10 -36 0 -36 0 -18 -20 z "
         style="fill:none" />
      <path
         id="p1ClxoFYXZ"
         d="M 650 105 c 0 -10 -10 -15 -30 -15 -25 0 -30 -4 -30 -25 0 -22 2 -24 25 -15 43 17 81 38 94 54 12 14 9 16 -23 16 -25 0 -36 -4 -36 -15 z "
         style="fill:none" />
      <path
         id="p1HsLX4EYm"
         d="M 160 85 c 0 -8 6 -15 14 -15 8 0 16 -5 18 -11 2 -6 14 -9 26 -7 19 3 17 6 -18 26 -33 18 -40 20 -40 7 z "
         style="fill:none" />
      <path
         id="pagQhxsx5"
         d="M 690 65 l -25 -14 28 -1 c 17 0 27 5 27 15 0 18 1 18 -30 0 z "
         style="fill:none" />
      <path
         id="pYkmbjRF8"
         d="M 490 40 c 0 -21 10 -24 48 -14 36 10 27 34 -13 34 -28 0 -35 -4 -35 -20 z "
         style="fill:none" />
      <path
         id="pNskgXNC6"
         d="M 250 36 c 0 -18 52 -36 104 -35 l 41 0 -53 15 c -29 7 -62 19 -73 24 -15 8 -19 7 -19 -4 z "
         style="fill:none" />
      <path
         id="pAXTtf5LR"
         d="M 625 35 l -30 -14 33 -1 c 22 0 32 5 32 15 0 8 -1 15 -2 14 -2 0 -16 -7 -33 -14 z "
         style="fill:none" />
    </g>
  </g>
  <g
     id="l6xy9wp0NkAtoI8s7lmDafg"
     fill="rgb(187,182,220)"
     style="transform:none;fill:none">
    <g
       style="transform:none;fill:none"
       id="g9">
      <path
         id="p4AzPkQiZ"
         d="M 310 900 c 0 -12 24 -12 60 0 21 7 19 8 -17 9 -24 1 -43 -3 -43 -9 z "
         style="fill:none" />
      <path
         id="pQUCgP7Vu"
         d="M 540 900 c 14 -4 37 -8 51 -9 33 -1 133 -66 181 -117 34 -35 107 -140 108 -154 1 -3 7 -27 15 -55 l 14 -50 0 77 c 1 48 -4 81 -11 90 -7 7 -19 25 -27 41 -8 15 -18 27 -23 27 -4 0 -8 6 -8 13 0 15 -73 87 -89 87 -6 0 -11 5 -11 10 0 6 -7 10 -15 10 -8 0 -15 5 -15 10 0 6 -7 10 -15 10 -8 0 -15 5 -15 10 0 6 -34 10 -82 9 -57 -1 -75 -4 -58 -9 z "
         style="fill:none" />
      <path
         id="peL19WJxL"
         d="M 186 875 c -8 -8 -19 -15 -25 -15 -6 0 -11 -9 -11 -19 0 -14 -8 -21 -27 -23 -20 -2 -29 -9 -31 -25 -2 -13 -10 -23 -18 -23 -8 0 -14 -7 -14 -15 0 -8 -4 -15 -10 -15 -5 0 -10 -16 -10 -35 0 -43 10 -44 34 -3 33 54 88 109 143 140 29 17 53 34 53 39 0 15 -67 10 -84 -6 z "
         style="fill:none" />
      <path
         id="pziD2xJWI"
         d="M 350 870 l -25 -8 28 -1 c 15 -1 27 4 27 9 0 6 -1 10 -2 9 -2 -1 -14 -5 -28 -9 z "
         style="fill:none" />
      <path
         id="paTMakAgu"
         d="M 530 869 c 0 -5 11 -9 25 -9 14 0 25 2 25 4 0 2 -11 6 -25 8 -14 3 -25 1 -25 -3 z "
         style="fill:none" />
      <path
         id="p17LmROamE"
         d="M 225 815 c -25 -15 -33 -24 -22 -25 9 0 17 4 17 9 0 5 11 12 25 15 14 4 25 11 25 16 0 13 1 13 -45 -15 z "
         style="fill:none" />
      <path
         id="pv4ifUsnd"
         d="M 640 830 c 0 -5 7 -10 15 -10 8 0 15 -4 15 -10 0 -5 4 -10 9 -10 15 0 106 -95 119 -124 6 -14 15 -26 20 -26 5 0 17 -25 27 -55 11 -30 23 -55 27 -55 11 0 -24 90 -55 143 -14 24 -46 62 -70 84 -49 45 -107 79 -107 63 z "
         style="fill:none" />
      <path
         id="pWVEm0blO"
         d="M 107 707 c -20 -30 -21 -37 -7 -37 6 0 10 6 10 14 0 8 5 16 12 18 6 2 9 10 7 17 -3 9 -11 5 -22 -12 z "
         style="fill:none" />
      <path
         id="pHPw5o0OO"
         d="M 1 588 c 1 -76 0 -77 32 25 l 15 47 -24 0 c -23 0 -24 -2 -23 -72 z "
         style="fill:none" />
      <path
         id="pxil9XfGe"
         d="M 56 620 c -19 -61 -34 -130 -27 -130 10 0 43 117 39 138 -3 13 -6 11 -12 -8 z "
         style="fill:none" />
      <path
         id="pdnBehWIq"
         d="M 26 393 c 37 -173 126 -285 270 -341 61 -24 124 -36 124 -24 0 5 -16 12 -35 15 -38 6 -158 57 -163 69 -2 4 -7 8 -12 8 -10 0 -90 80 -90 90 0 5 -4 10 -8 12 -12 5 -63 125 -69 163 -3 19 -10 35 -14 35 -5 0 -7 -12 -3 -27 z "
         style="fill:none" />
      <path
         id="pzzrNjo8S"
         d="M 1 323 c -1 -69 20 -143 41 -143 4 0 8 -7 8 -15 0 -8 5 -15 10 -15 6 0 10 -6 10 -13 0 -16 52 -67 68 -67 7 0 12 -4 12 -10 0 -5 7 -10 15 -10 8 0 15 -4 15 -8 0 -21 74 -42 143 -41 l 72 0 -52 14 c -165 45 -283 162 -327 326 l -15 54 0 -72 z "
         style="fill:none" />
      <path
         id="poebCq65F"
         d="M 898 354 c -4 -22 -24 -72 -43 -111 -56 -113 -157 -192 -288 -228 l -52 -14 72 0 c 69 -1 143 20 143 41 0 4 7 8 15 8 8 0 15 5 15 10 0 6 5 10 12 10 16 0 68 51 68 67 0 7 5 13 10 13 6 0 10 7 10 15 0 8 4 15 8 15 22 0 43 77 40 145 -3 65 -4 67 -10 29 z "
         style="fill:none" />
      <path
         id="p1FWvs14wF"
         d="M 860 359 c 0 -17 -53 -133 -62 -137 -4 -2 -8 -7 -8 -12 0 -10 -80 -90 -90 -90 -5 0 -10 -4 -12 -8 -5 -12 -125 -63 -163 -69 -19 -3 -35 -10 -35 -15 0 -12 63 0 124 24 104 40 181 112 227 213 35 78 43 105 30 105 -6 0 -11 -5 -11 -11 z "
         style="fill:none" />
    </g>
  </g>
  <g
     id="l4kItnJB0gHnap6VQ9SrL0I"
     fill="rgb(201,207,190)"
     style="transform: none;">
    <g
       style="transform: none;"
       id="g10">
      <path
         id="p2rFtC0aW"
         d="M 320 900 c -20 -6 -21 -8 -5 -8 11 0 29 3 40 8 25 11 -1 11 -35 0 z " />
      <path
         id="pcL3rxy77"
         d="M 550 900 c 14 -4 34 -8 45 -8 16 0 15 2 -5 8 -14 4 -34 8 -45 8 -16 0 -15 -2 5 -8 z " />
      <path
         id="p3hoDAQSC"
         d="M 233 867 c -60 -30 -54 -39 7 -10 28 13 50 26 50 28 0 9 -14 4 -57 -18 z " />
      <path
         id="pRR3RAiEL"
         d="M 325 862 c -57 -20 -135 -63 -155 -86 -11 -14 -8 -16 23 -16 19 0 37 3 39 8 5 12 113 60 152 67 26 5 36 12 36 26 0 24 -28 24 -95 1 z " />
      <path
         id="pmjC4h6KK"
         d="M 490 864 c 0 -15 15 -23 68 -39 37 -10 73 -25 80 -32 7 -7 19 -13 27 -13 7 0 15 -7 19 -15 3 -9 18 -15 36 -15 27 0 30 -3 30 -30 0 -18 6 -33 15 -36 8 -4 15 -12 15 -20 0 -8 10 -14 25 -14 32 0 31 8 -3 56 -61 83 -174 155 -271 170 -36 6 -41 4 -41 -12 z " />
      <path
         id="p2J9g514w"
         d="M 680 856 c 0 -2 18 -15 40 -30 22 -14 40 -22 40 -16 0 6 -8 14 -17 17 -10 4 -24 13 -31 20 -12 12 -32 18 -32 9 z " />
      <path
         id="p0GcnD5tH"
         d="M 333 803 c -13 -2 -23 -11 -23 -19 0 -9 -11 -14 -30 -14 -16 0 -30 -4 -30 -10 0 -5 -7 -10 -15 -10 -10 0 -15 -10 -15 -30 l 0 -30 53 34 c 28 19 73 40 100 47 85 21 49 49 -40 32 z " />
      <path
         id="paM8pCEXQ"
         d="M 490 796 c 0 -9 19 -19 49 -26 28 -6 70 -25 95 -41 l 46 -29 0 30 c 0 25 -4 30 -25 30 -14 0 -25 6 -25 13 0 16 -63 37 -109 37 -20 0 -31 -5 -31 -14 z " />
      <path
         id="pBAMqPhJa"
         d="M 809 743 c 5 -10 16 -27 25 -38 14 -18 15 -18 16 -2 0 9 -4 17 -9 17 -5 0 -11 9 -14 20 -3 11 -10 20 -16 20 -8 0 -9 -5 -2 -17 z " />
      <path
         id="p10gBqdRaQ"
         d="M 109 708 c -70 -96 -100 -217 -80 -325 35 -190 177 -330 364 -358 43 -7 47 -6 47 14 0 14 -6 21 -20 21 -32 0 -114 24 -128 37 -7 7 -20 13 -28 13 -8 0 -14 4 -14 9 0 6 21 1 46 -10 25 -11 70 -23 100 -26 45 -5 54 -3 54 10 0 10 -16 19 -50 26 -141 30 -249 138 -274 274 -9 48 -36 51 -36 3 0 -40 29 -136 42 -136 4 0 8 -7 8 -15 0 -8 7 -15 15 -15 8 0 15 -7 15 -15 0 -13 -3 -13 -20 -3 -11 7 -20 18 -20 25 0 7 -7 13 -15 13 -8 0 -15 8 -15 18 0 11 -9 45 -20 77 -11 32 -20 77 -20 101 0 55 21 145 37 162 7 7 13 27 13 43 0 22 5 29 20 29 16 0 20 7 20 35 0 19 -2 35 -5 35 -3 0 -19 -19 -36 -42 z  m 131 -563 c 0 -8 -4 -15 -9 -15 -5 0 -11 7 -15 15 -3 9 0 15 9 15 8 0 15 -7 15 -15 z " />
      <path
         id="p1ER4rZbB3"
         d="M 496 732 c -7 -12 -57 -214 -54 -217 2 -2 16 -5 32 -7 30 -3 30 -3 53 92 13 52 27 102 32 111 8 13 5 18 -12 23 -30 8 -45 7 -51 -2 z " />
      <path
         id="p4gJhRF9a"
         d="M 36 674 c -3 -9 -6 -23 -6 -32 1 -12 5 -10 15 8 8 14 14 28 15 33 0 13 -18 7 -24 -9 z " />
      <path
         id="p14zJjYHFw"
         d="M 150 669 c 0 -6 -7 -17 -15 -25 -17 -18 -45 -106 -45 -146 0 -48 27 -33 40 22 6 27 27 74 45 105 l 34 55 -30 0 c -16 0 -29 -5 -29 -11 z " />
      <path
         id="paRqa4fO2"
         d="M 734 634 c 14 -20 33 -63 42 -95 20 -66 44 -79 44 -24 0 19 -4 35 -10 35 -5 0 -10 14 -10 30 0 20 -5 30 -15 30 -10 0 -15 10 -15 30 0 27 -3 30 -30 30 l -31 0 25 -36 z " />
      <path
         id="pXBuweCRV"
         d="M 200 606 c -13 -20 -15 -32 -8 -35 6 -2 52 -30 102 -62 l 91 -58 14 27 c 8 15 13 29 11 32 -2 3 -45 33 -96 66 l -94 61 -20 -31 z " />
      <path
         id="pqv9yeS6S"
         d="M 820 611 c 0 -16 7 -48 16 -72 19 -54 12 -192 -11 -216 -8 -8 -15 -28 -15 -44 0 -18 -5 -29 -14 -29 -15 0 -10 50 6 61 5 3 11 29 15 57 5 43 3 52 -9 52 -10 0 -20 -17 -27 -46 -34 -134 -130 -225 -268 -254 -63 -14 -74 -40 -17 -40 51 0 114 20 114 37 0 7 11 13 25 13 14 0 25 -4 25 -10 0 -5 -6 -10 -14 -10 -8 0 -21 -6 -28 -13 -14 -13 -96 -37 -128 -37 -14 0 -20 -7 -20 -21 0 -20 4 -21 47 -14 61 9 135 38 188 75 155 107 223 332 151 503 -18 44 -36 48 -36 8 z  m -40 -380 c 0 -5 -7 -11 -15 -15 -9 -3 -15 0 -15 9 0 8 7 15 15 15 8 0 15 -4 15 -9 z  m -40 -56 c 0 -8 -7 -15 -15 -15 -8 0 -15 7 -15 15 0 8 7 15 15 15 8 0 15 -7 15 -15 z " />
      <path
         id="p55dbfsOI"
         d="M 881 635 c 0 -5 6 -30 13 -55 8 -25 15 -36 15 -25 -1 21 -27 98 -28 80 z " />
      <path
         id="p15TQdfVeZ"
         d="M 6 589 c -10 -50 -6 -57 9 -20 17 38 19 51 6 51 -5 0 -11 -14 -15 -31 z " />
      <path
         id="pxIGKqD5L"
         d="M 730 504 c -8 -2 -32 -5 -52 -9 -40 -6 -54 -35 -18 -35 11 0 20 -7 20 -15 0 -11 11 -15 40 -15 l 41 0 -7 38 c -8 43 -5 39 -24 36 z " />
      <path
         id="p1EJdWbPWZ"
         d="M 517 484 c -7 -7 3 -35 19 -51 14 -14 36 -16 72 -7 21 6 32 34 12 34 -5 0 -10 7 -10 15 0 11 -11 15 -43 15 -24 0 -46 -3 -50 -6 z " />
      <path
         id="pnipSWDGw"
         d="M 431 466 c -16 -20 -3 -46 24 -46 13 0 26 7 29 16 7 19 -10 44 -29 44 -7 0 -18 -6 -24 -14 z " />
      <path
         id="pG2Vf6MJx"
         d="M 309 367 c -41 -35 -82 -68 -91 -73 -16 -9 -16 -12 6 -39 l 24 -29 73 64 c 123 106 113 93 86 118 l -24 22 -74 -63 z  m 51 -17 c 0 -5 -7 -10 -15 -10 -8 0 -15 5 -15 10 0 6 7 10 15 10 8 0 15 -4 15 -10 z  m -70 -50 c 0 -5 -7 -10 -15 -10 -8 0 -15 5 -15 10 0 6 7 10 15 10 8 0 15 -4 15 -10 z " />
      <path
         id="pY8rmfswt"
         d="M 475 388 c -11 -6 -21 -12 -23 -13 -3 -2 77 -204 85 -214 6 -9 64 23 59 33 -2 6 -22 54 -44 105 -21 52 -43 96 -48 98 -5 1 -18 -3 -29 -9 z " />
      <path
         id="pLne8KEai"
         d="M 1 354 c -1 -31 30 -124 42 -124 5 0 6 8 2 18 -4 9 -16 42 -26 72 -10 30 -18 45 -18 34 z " />
      <path
         id="p9NUzaYJ3"
         d="M 898 345 c -3 -14 -1 -25 3 -25 5 0 9 11 9 25 0 14 -2 25 -4 25 -2 0 -6 -11 -8 -25 z " />
      <path
         id="pWIzoA4PD"
         d="M 873 270 c -6 -17 -7 -30 -2 -30 9 0 24 48 17 55 -2 2 -9 -9 -15 -25 z " />
      <path
         id="p1EiAqhXbV"
         d="M 60 197 c 0 -9 5 -17 10 -17 6 0 10 -6 10 -13 0 -14 31 -47 44 -47 4 0 -5 17 -20 38 -41 55 -44 58 -44 39 z " />
      <path
         id="pj8ekMu98"
         d="M 816 170 c -15 -23 -22 -40 -15 -38 7 2 17 13 23 24 6 10 15 22 20 25 5 4 7 12 4 19 -2 7 -16 -7 -32 -30 z " />
      <path
         id="pK4gJUIYQ"
         d="M 140 100 c 0 -7 9 -14 20 -17 11 -3 20 -9 20 -14 0 -5 5 -9 11 -9 6 0 17 -7 25 -15 9 -8 25 -15 37 -15 14 0 5 10 -34 33 -30 18 -60 36 -66 40 -8 5 -13 3 -13 -3 z " />
      <path
         id="pETenpOua"
         d="M 701 69 c -43 -26 -58 -39 -44 -39 12 0 28 7 37 15 8 8 19 15 25 15 6 0 11 5 11 10 0 6 6 10 14 10 14 0 32 18 25 25 -2 2 -33 -15 -68 -36 z " />
      <path
         id="p9DTnnn3w"
         d="M 280 21 c 0 -11 36 -21 70 -20 18 0 12 4 -20 15 -54 16 -50 16 -50 5 z " />
      <path
         id="p6fvD2Dr2"
         d="M 575 15 c -32 -11 -35 -14 -15 -14 34 -1 70 9 70 20 0 11 -4 10 -55 -6 z " />
    </g>
  </g>
  <g
     id="l4kUKuYd1dA2jhNeBVfgZZ5"
     fill="rgb(225,236,201)"
     style="transform: none;">
    <g
       style="transform: none;"
       id="g11">
      <path
         id="pK72GRbn4"
         d="M881.3388014016689 451.23875674914 C 881.3388014016689 686.9813327552016 690.2316842409369 878.0884499159336 454.4891082348753 878.0884499159336 218.74653222881363 878.0884499159336 27.63941506808169 686.9813327552016 27.63941506808169 451.23875674914 27.63941506808169 215.4961807430783 218.74653222881363 24.38906358234635 454.4891082348753 24.38906358234635 690.2316842409369 24.38906358234635 881.3388014016689 215.4961807430783 881.3388014016689 451.23875674914 Z M349.0 866.0  M789.8702366343535 447.648242565502 C 789.8702366343535 262.8633265121723 640.0724648443667 113.06555472218542 455.287548791037 113.06555472218542 270.50263273770736 113.06555472218542 120.70486094772048 262.8633265121723 120.70486094772048 447.648242565502 120.70486094772048 632.4331586188316 270.50263273770736 782.2309304088185 455.287548791037 782.2309304088185 640.0724648443667 782.2309304088185 789.8702366343535 632.4331586188316 789.8702366343535 447.648242565502 Z M603.0 750.0 " />
      <path
         id="pv9Euhgfg"
         d="M 490 723 c 0 -10 -11 -60 -24 -111 l -23 -92 24 -6 c 13 -4 27 -3 31 1 4 3 18 53 32 110 25 103 25 104 5 109 -34 10 -45 7 -45 -11 z " />
      <path
         id="pikgLoHfO"
         d="M 204 604 c -9 -13 -15 -26 -13 -28 2 -1 46 -29 97 -61 88 -55 94 -57 106 -39 8 11 14 23 15 27 1 5 -41 35 -93 68 l -96 58 -16 -25 z " />
      <path
         id="ptRlYAOE4"
         d="M 690 493 c -168 -11 -170 -12 -170 -45 0 -30 0 -30 48 -24 26 3 77 7 114 8 l 68 3 0 33 c 0 17 -3 31 -7 30 -5 -1 -28 -3 -53 -5 z " />
      <path
         id="pVmEVvKQd"
         d="M 442 471 c -20 -12 -10 -46 13 -46 14 0 20 7 20 24 0 27 -13 35 -33 22 z " />
      <path
         id="p12W5Q67MA"
         d="M 325 378 c -33 -28 -73 -61 -89 -75 -27 -23 -28 -24 -11 -43 10 -11 21 -20 25 -20 5 0 173 137 176 144 0 0 -9 11 -21 22 l -20 22 -60 -50 z " />
      <path
         id="pjtXObtwz"
         d="M 479 386 l -27 -11 39 -94 c 21 -51 39 -100 39 -107 0 -17 -1 -17 37 -3 l 31 10 -34 82 c -61 143 -55 136 -85 123 z " />
      <path
         id="p1FrsL8z5D"
         d="M 705 836 c 60 -40 90 -72 139 -146 38 -58 50 -59 15 0 -40 66 -79 108 -133 144 -30 20 -58 36 -63 36 -4 0 15 -15 42 -34 z " />
      <path
         id="p1Gm4kowky"
         d="M 163 821 c -73 -53 -142 -163 -157 -251 l -6 -35 15 40 c 50 127 92 190 165 247 46 37 34 36 -17 -1 z " />
      <path
         id="psiK3mLEg"
         d="M 4 345 c 15 -99 86 -210 174 -272 50 -36 140 -73 175 -72 12 0 -6 9 -40 20 -139 44 -246 151 -293 292 -11 34 -19 48 -16 32 z " />
      <path
         id="pSB8xSfKR"
         d="M 878 283 c -42 -119 -150 -220 -281 -263 -52 -17 -55 -20 -22 -16 61 8 160 62 215 118 49 50 114 167 108 195 -2 8 -11 -7 -20 -34 z " />
    </g>
  </g>
  <g
     id="l3rKn65fRs6zbdamhAECgOu"
     fill="rgb(248,247,251)"
     style="transform:none;fill:none">
    <g
       style="transform:none;fill:none"
       id="g12">
      <path
         id="pZwQpzrZS"
         d="M 1 723 c 0 -178 1 -186 15 -148 33 89 79 168 121 209 44 44 133 93 203 114 27 8 -8 10 -152 11 l -188 1 1 -187 z "
         style="fill:none" />
      <path
         id="p6v9ICtxY"
         d="M 550 900 c 14 -4 36 -8 50 -9 26 -1 114 -55 164 -100 45 -42 108 -140 127 -200 l 18 -56 0 188 1 187 -192 -1 c -113 -1 -183 -4 -168 -9 z "
         style="fill:none" />
      <path
         id="p1CeV5puM9"
         d="M 1 188 l -1 -188 188 1 187 0 -62 20 c -93 29 -180 92 -230 167 -24 35 -52 91 -62 125 l -20 62 0 -187 z "
         style="fill:none" />
      <path
         id="pZ3J2XcNP"
         d="M 888 311 c -40 -134 -152 -246 -291 -290 l -62 -20 188 0 187 -1 0 185 c 0 102 -1 185 -2 185 -2 0 -11 -26 -20 -59 z "
         style="fill:none" />
    </g>
  </g>
</svg>
